<svg width="16" height="16" viewBox="0 0 16 16" xmlns="http://www.w3.org/2000/svg"><title>Bonus Icon</title><defs><linearGradient x1="50%" y1="0%" x2="50%" y2="100%" id="a"><stop stop-color="#4298E1" offset="0%"/><stop stop-color="#1763CC" offset="100%"/></linearGradient></defs><path d="M5.175 3.113C6.13 1.106 6.654 0 7.76 0h.06l.05.004c1.05.087 1.565 1.163 2.497 3.118.197.411.472.987.652 1.31.107.009.264.016.493.016.276 0 .578-.01.898-.02.324-.01.66-.022.973-.022.952 0 1.64.095 2.13.57.33.32.503.754.486 1.224-.038 1.025-.897 1.787-2.414 3.044-.278.231-.655.544-.906.775a31 31 0 0 0 .374 1.196c.668 2.046.992 3.154.46 4.01a1.461 1.461 0 0 1-1.259.7c-.73 0-1.575-.497-3.006-1.377-.48-.295-1.233-.759-1.626-.938-.357.184-1.018.618-1.481.921-1.458.956-2.252 1.455-3 1.469-.46 0-.876-.221-1.143-.607-.552-.802-.22-1.812.383-3.647.173-.526.444-1.352.533-1.78-.238-.284-.75-.737-1.078-1.027C.822 8.042.022 7.334 0 6.353c-.01-.464.166-.895.495-1.214.614-.596 1.574-.653 3.09-.696.29-.008.686-.019.954-.041.18-.329.445-.887.636-1.289z" fill="url(#a)" fill-rule="nonzero"/></svg>