<svg width="15" height="15" viewBox="0 0 15 15" xmlns="http://www.w3.org/2000/svg"><title>Culture</title><defs><linearGradient x1="50%" y1="0%" x2="50%" y2="100%" id="a"><stop stop-color="#4298E1" offset="0%"/><stop stop-color="#1763CC" offset="100%"/></linearGradient></defs><path d="M15.739 1.13c-.191-.128-.447-.16-.638-.065-1.945.989-4.082 1.5-6.346 1.5-3.858 0-6.824-1.468-6.856-1.5C1.676.97 1.452.97 1.26 1.13c-.191.16-.287.35-.255.606l1.403 9.056a5.712 5.712 0 0 0 2.2 3.86 6.32 6.32 0 0 0 7.781 0c1.244-.99 2.01-2.36 2.2-3.86l1.404-9.056c.032-.255-.064-.478-.255-.606zM4.29 6.772a.618.618 0 0 1-.128-.86.618.618 0 0 1 .861-.128c.064.064.702.478 1.34 0a.584.584 0 0 1 .86.127c.224.287.16.67-.127.861-.478.351-.957.479-1.403.479-.542 0-1.084-.255-1.403-.479zm7.079 3.668c-.83.893-1.754 1.37-2.774 1.37-1.69 0-2.902-1.307-2.966-1.37a.646.646 0 0 1 .032-.893.646.646 0 0 1 .893.032c0 .032.925.956 2.04.956.638 0 1.276-.319 1.85-.956.223-.255.638-.255.893-.032s.255.638.032.893zm1.34-3.668c-.479.351-.957.479-1.404.479-.638 0-1.18-.255-1.467-.479a.618.618 0 0 1-.127-.86.618.618 0 0 1 .86-.128c.065.064.702.478 1.34 0a.584.584 0 0 1 .861.127c.255.256.191.638-.064.861z" fill="url(#a)" fill-rule="nonzero" transform="translate(-1 -1)"/></svg>