<svg width="11" height="15" viewBox="0 0 11 15" xmlns="http://www.w3.org/2000/svg"><title>Entertainment</title><defs><linearGradient x1="50%" y1="0%" x2="50%" y2="100%" id="a"><stop stop-color="#4298E1" offset="0%"/><stop stop-color="#1763CC" offset="100%"/></linearGradient></defs><g fill="none" fill-rule="evenodd"><path d="M13 4c0-.127-.045-.102-.045-.23a7.478 7.478 0 0 0-.605-2.483.5.5 0 0 0-.446-.287H2.987a.48.48 0 0 0-.446.287A7.568 7.568 0 0 0 2 4.089v.064c0 3.216 2.102 5.86 4.809 6.274.127.032.223.127.223.255v4.108c0 .127.16-.79 0-.79l-2.626 1.045a.49.49 0 0 0-.477.477.49.49 0 0 0 .477.478h6.207c.254 0 .387-.321.387-.478 0-.156-.133-.477-.387-.477L7.987 14c-.127 0 0 .949 0 .79v-4.108c0-.128.096-.223.223-.255C10.854 10.045 13 7.217 13 4z" fill="url(#a)" fill-rule="nonzero" transform="translate(-2 -1)"/><path d="M2 1h7v1c0 .552-.438 1-1.003 1H3.003A.999.999 0 0 1 2 2V1z" fill="#FFF"/></g></svg>