<svg width="90" height="121" viewBox="0 0 90 121" xmlns="http://www.w3.org/2000/svg"><title>Icon</title><defs><linearGradient x1="50%" y1="0%" x2="50%" y2="100%" id="a"><stop stop-color="#4298E1" offset="0%"/><stop stop-color="#1763CC" offset="100%"/></linearGradient></defs><g transform="translate(-155 -999)" fill-rule="nonzero" fill="url(#a)"><path d="M175.806 1031.532l13.48-24.532 4.21 7.326 7.95-15.326 6.533 12.162 1.021 1.01-.312.31 9.312 17.33h-1.324a87.428 87.428 0 0 1 15.285 4.764 80.826 80.826 0 0 1 9.27 4.525 56.296 56.296 0 0 1 2.474 1.5 33.375 33.375 0 0 1 .874.584l-1.158 1.63c-.131-.093-.4-.275-.8-.533a54.309 54.309 0 0 0-2.386-1.446 78.835 78.835 0 0 0-9.148-4.457c3.706 4.47 5.642 10.59 5.66 17.99-.068 6.94-1.759 12.481-1.823 12.678l-1.979-.643c.064-.197 6.442-21.51-6.477-31.582l.124-.156a84.5 84.5 0 0 0-9.869-2.797c8.9 11.854-2.658 32.289-2.74 32.592l-1.781-1.176c.156-.191 12.403-22.112.923-32.118a80.27 80.27 0 0 0-13.62-1.167c-11.093 0-21.372 2.305-30.763 6.181a81.524 81.524 0 0 0-9.022 4.383c-.466.262-.909.517-1.379.792l-1.01.595c-.327.192-.518.3-.667.377-.12.061-.215.104-.32.136a1.016 1.016 0 0 1-.47.04 1.01 1.01 0 0 1-.874-1.004h2a.985.985 0 0 0-1.248-.952c.103-.052.273-.15.566-.321l1.013-.597c.479-.28.93-.54 1.407-.809a83.504 83.504 0 0 1 9.241-4.488 86.007 86.007 0 0 1 7.827-2.8zm2.806-.799a81.662 81.662 0 0 1 7.88-1.685l-.492-.273 4.299-8.287-.813.783-1.405-1.354-2.162 2.083-1.526-1.47-5.266 9.88-.515.323zm9.798-1.973a81.061 81.061 0 0 1 11.096-.76c5.443 0 10.738.543 15.85 1.543l-8.281-15.464-1.94 1.921-3.135-3.103-3.134 3.103-2.549-2.523-1.568 3.03.251.437-.663.36-5.927 11.456zm17.651-16.574l-4.616-8.621-4.137 7.996 1.558 1.542L202 1010l3.134 3.103.927-.917zm-20.64 6.417l.498.48 2.162-2.083 2.685 2.587 1.543-2.975-3.023-5.261-3.866 7.252zm39.813 46.843l-1.88-.828c.193-.592.482-1.152.706-1.843.385-1.183.704-2.497.927-3.842l2.04.335a30.867 30.867 0 0 1-1.023 4.139c-.224.69-.546 1.349-.77 2.04zm.316-12.546a29.531 29.531 0 0 0-.537-5.953l1.973-.45c.395 2.091.563 4.218.603 6.411l-2.04-.008zm-.335-10.663c-.783-1.89-1.856-3.547-3.09-5.038l1.613-1.33a26.145 26.145 0 0 1 3.383 5.461l-1.906.907z"/><path d="M187.05 1054.19c-1.716-2.272-1.53-4.45 2.07-6.046 0 0-3.763-2.224-.932-2.059 2.83.166 2.802-.144 2.223-1.14-.578-.998-.144-1.265 2.433-.514 2.576.752 10.267 2.547 5.777 8.847-4.489 6.3-9.855 3.185-11.571.912zm42.387 39.034c4.156 6.237 3.001 10.048-1.616 2.541-4.618-7.507-1.963 1.733-2.193 15.823-.231 14.09-2.194 4.273-4.156-4.273-1.963-8.547-1.43 5.689-4.733 11.96-2.501 4.748-3.302-15.175-4.733-20.66-1.511-5.795-3.76-10.625-3.76-10.625-2.814-4.356-6.525-12.415-7.668-13.822-1.97-2.425 3.039 38.23-.497 44.37-2.915 5.061-2.938-17.345-5.79-23.928-2.85-6.582-5.91 1.04-6.65 7.97-.739 6.929-6.436 22.096-4.555-3.791 1.805-24.84 1.057-24.973-.803-21.46-8.3 15.689-2.53 27.479-2.53 27.479s-2.141 1.085-5.41 1.9c-.76 6.184-1.637 11.673-3.082 8.93-1.143-2.168-1.826-5.29-2.313-8.092a24.928 24.928 0 0 1-3.297-.02c-1.635 7.106-3.082 12.402-3.279.426-.005-.31-.008-.615-.01-.919a19.79 19.79 0 0 1-5.761-2.302s4.86-3.69 6.2-10.084c.308-5.387.241-7.173-2.622-2.518-4.617 7.507-5.772 3.696-1.616-2.54 4.156-6.238 8.593-9.069 16.668-5.142h.001s1.346-11.593 8.003-23.638c0 0 3.346-2.117 12.071-1.77 8.726.346 15.812 17.576 16.328 28.663.016.33.022.63.02.903 8.076-3.927 13.627-1.617 17.783 4.62zM219 1085c-2.21 0-4-2.015-4-4.5s1.79-4.5 4-4.5 4 2.015 4 4.5-1.79 4.5-4 4.5zm-51-4c-1.188 0-2.253-.601-2.987-1.55a10.16 10.16 0 0 1-3.013-.893s1.425-.729 1.125-3.146c-.3-2.418 1.387-6.486 4.012-4.298 0 0 3.076-2.866 4.688.6 1.612 3.467.525 3.007 2.175 3.928 0 0-.768.97-2.133 1.942-.466 1.968-2.018 3.417-3.867 3.417z"/></g></svg>