<svg width="95" height="73" viewBox="0 0 95 73" xmlns="http://www.w3.org/2000/svg"><title>Group 28</title><defs><linearGradient x1="50%" y1="0%" x2="50%" y2="100%" id="a"><stop stop-color="#4C0" offset="0%"/><stop stop-color="#3BB300" offset="100%"/></linearGradient></defs><path d="M84.652 59.822c.14.662.215 1.35.215 2.053 0 4.5-2.986 8.294-7.107 9.55h15.52c.286 0 .518.332.518.741 0 .41-.232.741-.519.741H2.323c-.287 0-.52-.331-.52-.74 0-.41.233-.742.52-.742h39.963c-4.121-1.256-7.108-5.05-7.108-9.55 0-5.527 4.561-9.99 10.142-10.044 2.307 0 4.4.744 6.064 2.02.965-1.86 1.717-4.146 1.878-6.91-.054-.796.053-1.275.053-1.328v-.106c-.053-.053-.053-.106-.053-.16-.054-.531.322-1.01.858-1.116l5.742-1.169 6.01-7.706c.643-.85 1.717-1.382 2.843-1.382 1.986 0 3.596 1.595 3.596 3.561v8.77a4.925 4.925 0 0 1-2.469 4.25l-9.014 5.209v.16a22.433 22.433 0 0 0 4.507 2.444 10.096 10.096 0 0 1 9.444-6.484c4.598 0 8.527 3.09 9.718 7.31.037-.363.298-.646.614-.646h9.154c.342 0 .619.33.619.735v.074c0 .406-.277.673-.619.673h-9.154a.596.596 0 0 1-.459-.208zM48.247 71.425h23.551c-4.12-1.256-7.107-5.05-7.107-9.55 0-.478.054-.956.107-1.435a29.69 29.69 0 0 1-3.917-1.913l.215 7.44c0 .532-.43 1.01-.966 1.064h-.107c-.537 0-.966-.373-1.074-.85l-2.307-11.055c-.322-.372-.644-.744-.912-1.116-.537-.744-.966-1.435-1.288-2.126-.43 1.276-.912 2.445-1.502 3.508 1.502 1.754 2.414 3.986 2.414 6.483 0 4.5-2.986 8.294-7.107 9.55zm-30.93-12.32V46.275a9.152 9.152 0 0 1-3.248.6c-5.113 0-9.258-4.166-9.258-9.307 0-1.424.327-2.769.897-3.977A9.307 9.307 0 0 1 0 24.996c0-4.772 3.576-8.702 8.18-9.24l-.003-.069C8.177 7.073 14.098.094 21.405.094c5.728 0 10.59 4.298 12.428 10.302.187-.01.37-.029.556-.029 5.115 0 9.26 4.168 9.26 9.31a9.31 9.31 0 0 1-3.314 7.132 9.301 9.301 0 0 1 3.314 7.132c0 5.14-4.144 9.308-9.258 9.308a9.176 9.176 0 0 1-3.924-.885c-1.509 1.76-3.373 3.093-5.456 3.837v12.903h8.92c.36 0 .65.356.65.834 0 .477-.29.834-.65.834h-30.8c-.359 0-.65-.357-.65-.834 0-.478.291-.834.65-.834h14.186zm70.513-2.658V54c-.84.014-1.828-.406-2.626-1.206-.851-.85-1.273-1.912-1.195-2.785.874-.078 1.935.344 2.785 1.195.495.494.845 1.06 1.036 1.618v-1.077c-.79-.754-1.312-2.028-1.312-3.471 0-1.553.601-2.909 1.495-3.635.893.726 1.496 2.082 1.496 3.635 0 1.443-.52 2.717-1.311 3.471v5.388c.194.469.276.94.237 1.366-.864.077-1.92-.34-2.764-1.185-.845-.843-1.263-1.897-1.185-2.76.866-.078 1.919.34 2.763 1.185.224.223.418.462.581.708zm3.388-3.096c-.844.843-1.897 1.26-2.764 1.186-.078-.865.34-1.918 1.185-2.761.843-.843 1.9-1.261 2.765-1.184.078.864-.342 1.915-1.186 2.759zm-2.764 5.148c-.078-.865.34-1.917 1.186-2.76.843-.844 1.899-1.263 2.763-1.184.079.864-.341 1.915-1.185 2.76-.844.843-1.897 1.26-2.764 1.184zM56.91 51.937l9.015-6.27-.107-3.19-4.132 3.72a1.29 1.29 0 0 1-.751.267l-5.634-.107v.691c.053 1.063.375 2.923 1.61 4.89zm-3.702 9.938c0-1.7-.537-3.295-1.502-4.464-2.63 3.667-5.742 5.368-5.957 5.474-.16.053-.322.107-.483.107-.375 0-.75-.213-.965-.585-.269-.532-.108-1.17.429-1.435.214-.106 3.112-1.7 5.473-5.208-1.341-1.116-3.059-1.754-4.937-1.754-4.4 0-7.941 3.56-7.941 7.865s3.541 7.866 7.941 7.866 7.942-3.508 7.942-7.866zm21.571 7.866c4.347 0 7.995-3.508 7.995-7.866 0-4.357-3.541-7.865-7.941-7.865a7.926 7.926 0 0 0-7.405 5.102c2.2.69 4.722 1.276 7.566 1.7.59.107 1.02.638.912 1.223-.107.584-.644 1.01-1.234.903-2.898-.425-5.473-1.01-7.78-1.753-.055.212-.055.478-.055.69 0 4.358 3.542 7.866 7.942 7.866zm-31.36-19.812c-.5 0-.945-.299-1-.748l-1.222-3.988a.802.802 0 0 1 .166-.848 1.21 1.21 0 0 1 .89-.399h8.72c.333 0 .722.15.888.4.167.248.278.547.167.847l-1.222 3.988c-.111.449-.556.748-1.055.748h-6.333zM68.966 25a3.982 3.982 0 0 1 3.975 3.989 3.982 3.982 0 0 1-3.975 3.988 3.982 3.982 0 0 1-3.975-3.988A3.982 3.982 0 0 1 68.967 25z" fill="url(#a)" fill-rule="evenodd"/></svg>