<svg width="13" height="18" viewBox="0 0 13 18" xmlns="http://www.w3.org/2000/svg"><title>Icon</title><g fill="#FFF"><path d="M5.02 2.472c.386-.513.344-1.005-.467-1.366 0 0 .848-.502.21-.464-.638.037-.63-.033-.5-.258s.032-.285-.549-.116c-.58.17-2.312.575-1.3 1.998 1.01 1.423 2.219.72 2.605.206zm7.114 9.226c-.955-1.432-2.23-1.962-4.084-1.06v-.001a3.87 3.87 0 0 0-.005-.207c-.118-2.545-1.746-6.5-3.75-6.58-2.004-.08-2.772.407-2.772.407S-.216 9.172.083 10.16c.183.6.684-.684.684-.684.41-.716 1.36-5.272.722 3.499-.432 5.942.876 2.46 1.046.87.17-1.59.873-3.34 1.527-1.83.655 1.512.66 6.655 1.33 5.493.812-1.41-.339-10.741.114-10.185.263.323 1.115 2.173 1.761 3.173 0 0 .516 1.109.864 2.439.328 1.259.512 5.832 1.087 4.742.758-1.44.636-4.707 1.086-2.745.451 1.962.902 4.215.955.98.053-3.234-.557-5.354.504-3.631 1.06 1.723 1.325.848.37-.583z"/><path d="M9.924 9.683c.523 0 .946-.479.946-1.07 0-.59-.423-1.069-.946-1.069-.522 0-.945.479-.945 1.07 0 .59.423 1.069.945 1.069z"/></g></svg>