<svg width="16" height="13" viewBox="0 0 16 13" xmlns="http://www.w3.org/2000/svg"><title>Outdoor Adventure</title><defs><linearGradient x1="50%" y1="0%" x2="50%" y2="100%" id="a"><stop stop-color="#4298E1" offset="0%"/><stop stop-color="#1763CC" offset="100%"/></linearGradient></defs><path d="M12.992 8.76a3.79 3.79 0 0 0-1.63.391 3.586 3.586 0 0 1-2.052.34c-.143.189-.287.377-.433.565a.383.383 0 0 1-.297.14.4.4 0 0 1-.21-.055c-.167-.1-.208-.297-.094-.441.101-.129.202-.257.301-.386a3.898 3.898 0 0 1-.93-.48c-.201.133-.404.265-.609.397a.389.389 0 0 1-.215.06.375.375 0 0 1-.287-.133c-.116-.143-.078-.34.081-.443.168-.106.335-.214.5-.322a4.327 4.327 0 0 1-.63-.78c-.236.03-.473.058-.711.085a.412.412 0 0 1-.056.002c-.17-.005-.315-.122-.336-.279-.024-.174.111-.331.301-.353.163-.018.326-.037.488-.057a3.805 3.805 0 0 1-.302-1.268l-.554.053a.331.331 0 0 1-.371-.286c-.018-.175.118-.33.303-.346.206-.019.412-.038.618-.06l.007-1.186c-.18-.006-.359-.012-.538-.02a.321.321 0 0 1-.314-.33.323.323 0 0 1 .34-.303c.172.007.447.008.619.013.071-.203.162-.595.163-.767a.298.298 0 0 0-.206-.293C5.495 2.076 4.204 2.012 3.373 2 2.36 1.99.857 2.315.438 2.433a.297.297 0 0 0-.219.297c.059 1.485.709 2.875.807 4.361.002.632.031.572-.07 1.193C.857 8.906.415 9.67.34 10.296l-.04.335C.25 11.05.2 12.037.152 12.457c-.017.145-.012.471-.025.59l-.067.57-.058.49c-.013.11.08.212.212.236l.462.079c.148.024.284-.059.296-.18l.047-.46c.156.025.313.05.47.072l-.047.489c-.01.11.087.211.222.23.154.023.31.044.465.064.147.02.279-.067.288-.187l.037-.464c.157.02.314.038.472.056l-.035.486c-.008.112.093.212.23.227l.468.047c.146.014.273-.074.28-.193l.027-.468.474.04-.025.484c-.005.113.1.211.24.221.156.012.312.022.469.032.145.009.268-.082.272-.2l.017-.472c.976.055 1.955.075 2.934.062l.005.477c0 .116.118.21.262.207l.47-.012c.142-.004.253-.101.25-.216l-.012-.48c.22-.008.438-.018.657-.029l.016.473c.004.117.127.208.272.2l.47-.03c.139-.01.245-.109.24-.222l-.025-.483c.219-.016.437-.034.655-.054l.029.469c.007.118.134.206.28.192.156-.015.312-.03.468-.048.137-.014.239-.115.23-.227l-.037-.485c.218-.025.435-.051.652-.08l.04.465c.01.12.143.205.29.185.154-.021.195-.024.35-.047.135-.02.231-.122.22-.232a467.22 467.22 0 0 0-.05-.488c.217-.033.37-.08.586-.117l.05.46c.014.12.151.202.299.177.153-.027.192-.001.346-.03.132-.025.223-.128.21-.237-.021-.163-.023-.87-.047-1.06-.04-2.629-.379-4.305-2.46-4.276z" fill="url(#a)" fill-rule="nonzero" transform="translate(0 -2)"/></svg>