<svg width="16" height="14" viewBox="0 0 16 14" xmlns="http://www.w3.org/2000/svg"><title>Sport and Recreation</title><defs><linearGradient x1="50%" y1="0%" x2="50%" y2="100%" id="a"><stop stop-color="#4298E1" offset="0%"/><stop stop-color="#1763CC" offset="100%"/></linearGradient></defs><path d="M15.842 15.835c-.347 0-.678-.163-.975-.445-.302-.288-.645-.461-1.004-.461-.36 0-.703.175-1.006.46-.296.283-.627.446-.974.446s-.679-.163-.974-.445c-.308-.288-.652-.461-1.006-.461-.359 0-.702.175-1.007.46-.295.283-.63.446-.974.446-.347 0-.677-.163-.977-.445-.304-.288-.646-.461-1.001-.461-.359 0-.702.175-1.007.46-.295.283-.63.446-.978.446-.342 0-.677-.163-.973-.445-.304-.288-.647-.461-1.006-.461-.356 0-.698.175-1.002.46-.3.283-.63.446-.978.446v-3.053c.347 0 .678-.167.978-.438.304-.295.646-.469 1.002-.469.359 0 .702.173 1.006.469.296.271.631.438.973.438.347 0 .683-.167.978-.438.304-.295.648-.469 1.007-.469.355 0 .697.173 1.001.469.3.271.63.438.977.438.344 0 .68-.167.974-.438.305-.295.648-.469 1.007-.469.354 0 .697.173 1.006.469.295.271.627.438.974.438s.678-.167.974-.438c.303-.295.646-.469 1.006-.469.359 0 .702.173 1.004.469.297.271.628.438.975.438v3.053zm-2.295-6.31c-1.116 0-1.885-.89-1.885-1.981 0-1.093.843-1.978 1.885-1.978 1.04 0 1.885.885 1.885 1.978 0 1.092-.844 1.981-1.885 1.981zM2.571 10.64l5.53-3.191-1.475-2.793-.048-.12c-.299-.748.226-1.357.622-1.452l5.648-1.08c.04-.003.08-.003.123-.003.592 0 1.076.5 1.076 1.125 0 .567-.39 1.01-.926 1.117l-3.656.7 3.143 5.952c-.229.075-.473.12-.725.12-.347 0-.679-.083-.974-.223a2.378 2.378 0 0 0-1.006-.236c-.359 0-.702.091-1.006.236a2.29 2.29 0 0 1-.974.224c-.348 0-.678-.084-.977-.224a2.342 2.342 0 0 0-1.002-.236 2.35 2.35 0 0 0-1.006.236c-.295.14-.631.224-.978.224-.342 0-.678-.084-.973-.224a2.271 2.271 0 0 0-.416-.152z" fill="url(#a)" fill-rule="nonzero" transform="translate(0 -2)"/></svg>