<svg width="44" height="44" viewBox="0 0 44 44" xmlns="http://www.w3.org/2000/svg"><title>Icon</title><defs><linearGradient x1="50%" y1="0%" x2="50%" y2="97.788%" id="a"><stop stop-color="#D61D1D" offset="0%"/><stop stop-color="#AC0000" offset="100%"/></linearGradient></defs><g transform="translate(-242 -4411)" fill-rule="nonzero" fill="url(#a)"><path d="M264 4451.603c10.274 0 18.603-8.329 18.603-18.603 0-10.274-8.329-18.603-18.603-18.603-10.274 0-18.603 8.329-18.603 18.603 0 10.274 8.329 18.603 18.603 18.603zm0 3.397c-12.15 0-22-9.85-22-22s9.85-22 22-22 22 9.85 22 22-9.85 22-22 22z"/><g transform="translate(254 4418)"><path d="M12.938 19.938c.062-.125.437-.438.5-.563l6.437-8.563c.188-.25.25-.624.125-.874-.125-4.313-3-8-6.938-9.25 1.376 2.25 2.188 5.875 2.313 9.624h2.688l-4.5 6 .062-6.125c0-.062 0-.187-.063-.25C13.188 4.064 11.313.376 10 .376c-1.375 0-3.313 3.813-3.563 9.938v.062l.188 5.875-4.438-5.938h2.438c.188-3.75.938-7.374 2.313-9.624C3 1.938.125 5.563 0 9.874v.438c0 .124.063.187.125.312l6.438 8.563c.062.125.5.625.625.812.25.25.875 3.938.875 3.938-1.313.75-2.626 2.312-2.313 5 .063.437.438.812.875.812h.125c.5-.063.875-.5.813-1-.375-2.875 2-3.5 2.25-3.5.124 0 .25-.125.374-.188.063 1.25.75 2.875 3.188 3.875a.68.68 0 0 0 .313.063c.374 0 .687-.188.874-.563.188-.437-.062-1-.5-1.187-1.75-.688-2-2.813-2-2.813v-.25c0-.125.626-4 .876-4.25zm-1.25-1.375c-.126.25-.563.625-1.626.687-.874-.063-1.312-.313-1.562-.563v-.125l-.313-8.312h3.5l-.062 8.25.063.063z"/><circle cx="10.063" cy="17.125" r="1.188"/></g></g></svg>