<svg width="44" height="44" viewBox="0 0 44 44" xmlns="http://www.w3.org/2000/svg"><title>Icon</title><defs><linearGradient x1="50%" y1="0%" x2="50%" y2="98.151%" id="a"><stop stop-color="#FFB707" offset="0%"/><stop stop-color="#FF8A00" offset="100%"/></linearGradient></defs><g transform="translate(-242 -3041)" fill-rule="nonzero" fill="url(#a)"><path d="M264 3081.603c10.274 0 18.603-8.329 18.603-18.603 0-10.274-8.329-18.603-18.603-18.603-10.274 0-18.603 8.329-18.603 18.603 0 10.274 8.329 18.603 18.603 18.603zm0 3.397c-12.15 0-22-9.85-22-22s9.85-22 22-22 22 9.85 22 22-9.85 22-22 22z"/><path d="M264.802 3057.264a.457.457 0 0 1-.457-.457v-4.24a.457.457 0 0 1 .914 0v4.24a.457.457 0 0 1-.457.457zm8.048.24a1.914 1.914 0 0 0-1.86-1.837v-.717a1.915 1.915 0 0 0 1.859-1.865h.548a1.914 1.914 0 0 0 1.86 1.864v.718a1.915 1.915 0 0 0-1.862 1.84l.002.024h-.548v-.027zm-19.952 2.29a2.718 2.718 0 0 0-2.641-2.607v-1.017a2.718 2.718 0 0 0 2.641-2.613l-.001-.034h.777a.854.854 0 0 0-.002.04 2.717 2.717 0 0 0 2.642 2.607v1.017a2.719 2.719 0 0 0-2.642 2.613l.002.034h-.777l.001-.04zm12.361 7.497h4.228v4.159h-4.228v-4.16zm-5.778 4.159h-3.057a9.506 9.506 0 0 1-1.169-4.16h4.226v4.16zm10.006-12.953v3.411h-4.228v-4.621a9.5 9.5 0 0 1 4.228 1.21zm.914 3.412v-2.82a9.634 9.634 0 0 1 2.591 2.82h-2.591zm-6.056 10.455v4.016a9.492 9.492 0 0 1-3.983-1.077.453.453 0 0 0 .033-.165v-2.774h3.95zm6.056 2.214v-2.214h2.197a9.635 9.635 0 0 1-2.197 2.214zm-.914-2.214v2.806a9.495 9.495 0 0 1-4.228 1.21v-4.016h4.228zm-9.092-5.073h3.95v4.159h-3.95v-4.16zm4.864-4.468h4.228v3.553h-4.228v-3.553zm-4.864 0h3.95v3.553h-3.95v-3.553zm-.914 9.541v2.418a9.642 9.642 0 0 1-2.475-2.418h2.475zm10.92-.914v-4.16h3.948a9.502 9.502 0 0 1-1.17 4.16h-2.778zm-10.92-8.627v3.553h-4.226a9.493 9.493 0 0 1 .87-3.553h3.356zm.914-.914v-3.538c0-.008-.004-.014-.004-.021a9.494 9.494 0 0 1 3.953-1.063v4.622h-3.949zm10.006.914h3.079c.506 1.09.809 2.29.87 3.553H270.4v-3.553zm-10.92-3.938v3.024h-2.869a9.64 9.64 0 0 1 2.869-3.024z"/></g></svg>