<svg width="44" height="44" viewBox="0 0 44 44" xmlns="http://www.w3.org/2000/svg"><title>Group</title><defs><linearGradient x1="50%" y1="0%" x2="50%" y2="100%" id="a"><stop stop-color="#4C0" offset="0%"/><stop stop-color="#3BB300" offset="100%"/></linearGradient></defs><g transform="translate(-181 -4629)" fill-rule="nonzero" fill="url(#a)"><path d="M205.853 4646.896c.04.73.761 1.359 1.515 1.32h2.01l-4.935 4.208-3.795-2.93a1.487 1.487 0 0 0-1.02-.363 1.48 1.48 0 0 0-.87.348l-6.72 5.571c-.67.438-.813 1.465-.288 2.06.526.594 1.597.616 2.148.044l5.805-4.817 3.885 3.003c.526.408 1.355.388 1.86-.043l6.24-5.325v2.423c-.01.736.68 1.412 1.44 1.412.761 0 1.451-.676 1.44-1.412v-5.572c0-.729-.686-1.393-1.44-1.393h-5.76c-.823.066-1.51.599-1.515 1.466z"/><path d="M203 4669.603c10.274 0 18.603-8.329 18.603-18.603 0-10.274-8.329-18.603-18.603-18.603-10.274 0-18.603 8.329-18.603 18.603 0 10.274 8.329 18.603 18.603 18.603zm0 3.397c-12.15 0-22-9.85-22-22s9.85-22 22-22 22 9.85 22 22-9.85 22-22 22z"/></g></svg>