<svg width="44" height="44" viewBox="0 0 44 44" xmlns="http://www.w3.org/2000/svg"><title>Icon</title><defs><linearGradient x1="50%" y1="0%" x2="50%" y2="100%" id="a"><stop stop-color="#4298E1" offset="0%"/><stop stop-color="#1763CC" offset="100%"/></linearGradient></defs><g transform="translate(-242 -5850)" fill-rule="nonzero" fill="url(#a)"><path d="M264 5890.603c10.274 0 18.603-8.329 18.603-18.603 0-10.274-8.329-18.603-18.603-18.603-10.274 0-18.603 8.329-18.603 18.603 0 10.274 8.329 18.603 18.603 18.603zm0 3.397c-12.15 0-22-9.85-22-22s9.85-22 22-22 22 9.85 22 22-9.85 22-22 22z"/><path d="M252.8 5878.96l3.48-1.92c1.32-.72 1.92-2.4 1.32-3.84-.24-.48-.36-1.08-.48-1.68l7.44 7.44a8.84 8.84 0 0 1-1.68-.48c-1.44-.6-3.12 0-3.84 1.32l-1.92 3.48c-.36.72-1.32.84-1.92.24l-2.88-2.88c-.36-.36-.24-1.32.48-1.68zm4.32-11.04c1.08-5.76 7.2-9.72 13.32-7.08 2.16.96 3.96 2.76 4.92 4.92 2.64 6.12-1.32 12.24-7.08 13.32-.12 0-.12 0-.24-.12l-10.92-10.92v-.12zm14.28 5.28c1.32 0 2.4-1.08 2.4-2.4 0-1.32-1.08-2.4-2.4-2.4-1.32 0-2.4 1.08-2.4 2.4 0 1.32 1.08 2.4 2.4 2.4z"/></g></svg>