<svg width="44" height="44" viewBox="0 0 44 44" xmlns="http://www.w3.org/2000/svg"><title>noun_534905_cc (1)</title><defs><linearGradient x1="50%" y1="0%" x2="50%" y2="100%" id="a"><stop stop-color="#4C0" offset="0%"/><stop stop-color="#3BB300" offset="100%"/></linearGradient></defs><g transform="translate(-179 -3880)" fill-rule="nonzero" fill="url(#a)"><path d="M196 3904a6.451 6.451 0 0 1-6.326-5.223l-.608-3.149a2.975 2.975 0 0 1 .595-2.504 2.994 2.994 0 0 1 2.344-1.124h1.505a1 1 0 0 1 0 2h-1.505a1 1 0 0 0-.783.376 1 1 0 0 0-.198.846l.613 3.176A4.45 4.45 0 0 0 196 3902a1 1 0 0 1 0 2zm10 0a1 1 0 1 1 0-2 4.45 4.45 0 0 0 4.363-3.602l.605-3.148a1.018 1.018 0 0 0-.19-.874.998.998 0 0 0-.783-.376h-1.507a1 1 0 1 1 0-2h1.507c.916 0 1.771.41 2.343 1.125.573.714.788 1.637.59 2.532l-.601 3.121A6.453 6.453 0 0 1 206 3904zm.003 10h-10.007a2 2 0 0 1-1.997-1.997 3.56 3.56 0 0 1 2.701-3.459l.566-.142a.967.967 0 0 0 .734-.94c0-.58-.288-1.119-.771-1.441a5.923 5.923 0 0 1-2.555-3.978l-1.563-9.73a1.997 1.997 0 0 1 1.972-2.313h11.833c.585 0 1.139.255 1.519.701a1.99 1.99 0 0 1 .453 1.612l-1.561 9.73a5.925 5.925 0 0 1-2.556 3.978c-.483.322-.771.86-.771 1.441a.97.97 0 0 0 .735.941l.563.14a3.562 3.562 0 0 1 2.702 3.46 2 2 0 0 1-1.997 1.997zm.91-22.003l-11.83.003 1.565 9.726a3.92 3.92 0 0 0 1.69 2.631 3.724 3.724 0 0 1 1.662 3.107 2.967 2.967 0 0 1-2.249 2.879l-.566.142a1.564 1.564 0 0 0-1.186 1.519l10.004-.004a1.571 1.571 0 0 0-1.189-1.517l-.563-.14a2.966 2.966 0 0 1-2.251-2.881 3.72 3.72 0 0 1 1.663-3.105 3.92 3.92 0 0 0 1.689-2.63l1.561-9.73z"/><path d="M201 3920.603c10.274 0 18.603-8.329 18.603-18.603 0-10.274-8.329-18.603-18.603-18.603-10.274 0-18.603 8.329-18.603 18.603 0 10.274 8.329 18.603 18.603 18.603zm0 3.397c-12.15 0-22-9.85-22-22s9.85-22 22-22 22 9.85 22 22-9.85 22-22 22z"/></g></svg>