<svg width="44" height="44" viewBox="0 0 44 44" xmlns="http://www.w3.org/2000/svg"><title>Icon</title><defs><linearGradient x1="50%" y1="0%" x2="50%" y2="98.151%" id="a"><stop stop-color="#B9CF28" offset="0%"/><stop stop-color="#8CAD09" offset="100%"/></linearGradient></defs><g transform="translate(-186 -1662)" fill-rule="nonzero" fill="url(#a)"><path d="M208 1702.603c10.274 0 18.603-8.329 18.603-18.603 0-10.274-8.329-18.603-18.603-18.603-10.274 0-18.603 8.329-18.603 18.603 0 10.274 8.329 18.603 18.603 18.603zm0 3.397c-12.15 0-22-9.85-22-22s9.85-22 22-22 22 9.85 22 22-9.85 22-22 22z"/><path d="M216.19 1671.939a.8.8 0 0 0-.75.984l.172.766-7.021 1.578a.8.8 0 0 0-.607.956l.175.782-7.025 1.578a.8.8 0 0 0-.603.956l.175.784-3.122.7a.8.8 0 1 0-1.562.35l.134.603a.8.8 0 0 0 .078.35l.138.61a.8.8 0 0 0 1.562-.35l3.122-.703.175.778a.8.8 0 0 0 .957.606l7.025-1.578.175.781a.8.8 0 0 0 .956.603l7.025-1.578.172.769a.8.8 0 1 0 1.562-.35l-.337-1.494a.8.8 0 0 0-.013-.056l-1.403-6.244-.347-1.547a.8.8 0 0 0-.812-.634zm-9.137 11.619a.8.8 0 0 0-.737.737l-3.166 11.869a.8.8 0 0 0 1.547.412l2.422-9.087 2.425 9.087a.8.8 0 1 0 1.547-.412l-3.17-11.878a.8.8 0 0 0-.787-.728.8.8 0 0 0-.08 0z"/></g></svg>