<?xml version="1.0" encoding="UTF-8"?>
<svg width="44px" height="44px" viewBox="0 0 44 44" version="1.1" xmlns="http://www.w3.org/2000/svg" xmlns:xlink="http://www.w3.org/1999/xlink">
    <!-- Generator: Sketch 43.1 (39012) - http://www.bohemiancoding.com/sketch -->
    <title>noun_534905_cc (1)</title>
    <desc>Created with Sketch.</desc>
    <defs>
        <linearGradient x1="50%" y1="0%" x2="50%" y2="100%" id="linearGradient-1">
            <stop stop-color="#44CC00" offset="0%"></stop>
            <stop stop-color="#3BB300" offset="100%"></stop>
        </linearGradient>
    </defs>
    <g id="Page-1" stroke="none" stroke-width="1" fill="none" fill-rule="evenodd">
        <g id="Best-Destinations-to-Explore-by-Bike" transform="translate(-179.000000, -3880.000000)" fill-rule="nonzero" fill="url(#linearGradient-1)">
            <g id="Content" transform="translate(110.000000, 356.000000)">
                <g id="Best-Cities-for" transform="translate(45.000000, 3428.000000)">
                    <g id="noun_534905_cc-(1)" transform="translate(24.000000, 96.000000)">
                        <path d="M17,24 C13.917,24 11.257,21.803 10.674,18.777 L10.066,15.628 C9.873,14.761 10.088,13.838 10.661,13.124 C11.235,12.41 12.089,12 13.005,12 L14.51,12 C15.062,12 15.51,12.448 15.51,13 C15.51,13.552 15.062,14 14.51,14 L13.005,14 C12.699,14 12.414,14.137 12.222,14.376 C12.03,14.615 11.958,14.923 12.024,15.222 L12.637,18.398 C13.04,20.485 14.875,22 17,22 C17.552,22 18,22.448 18,23 C18,23.553 17.552,24 17,24 L17,24 Z M27,24 C26.447,24 26,23.553 26,23 C26,22.448 26.447,22 27,22 C29.125,22 30.96,20.485 31.363,18.398 L31.968,15.25 C32.04,14.923 31.969,14.615 31.778,14.376 C31.587,14.137 31.301,14 30.995,14 L29.488,14 C28.935,14 28.488,13.552 28.488,13 C28.488,12.448 28.935,12 29.488,12 L30.995,12 C31.911,12 32.766,12.41 33.338,13.125 C33.911,13.839 34.126,14.762 33.928,15.657 L33.327,18.778 C32.743,21.804 30.082,24 27,24 Z M27.003,34 L16.996,34 C15.895,34 14.999,33.104 14.999,32.003 C14.999,30.364 16.11,28.941 17.7,28.544 L18.266,28.402 C18.697,28.295 19,27.908 19,27.462 C19,26.882 18.712,26.343 18.229,26.021 C16.865,25.112 15.934,23.662 15.674,22.043 L14.111,12.313 C14.019,11.734 14.183,11.147 14.563,10.701 C14.943,10.255 15.497,10 16.083,10 L27.916,10 C28.501,10 29.055,10.255 29.435,10.701 C29.816,11.147 29.981,11.734 29.888,12.313 L28.327,22.043 C28.067,23.661 27.136,25.111 25.771,26.021 C25.288,26.343 25,26.881 25,27.462 C25,27.907 25.303,28.295 25.735,28.403 L26.298,28.543 C27.89,28.942 29,30.364 29,32.003 C29,33.104 28.104,34 27.003,34 Z M27.913,11.997 L16.083,12 L17.648,21.726 C17.82,22.797 18.436,23.755 19.338,24.357 C20.379,25.05 21,26.212 21,27.464 C20.999,28.827 20.074,30.012 18.751,30.343 L18.185,30.485 C17.487,30.66 16.999,31.284 16.999,32.004 L27.003,32 C27,31.283 26.512,30.659 25.814,30.483 L25.251,30.343 C23.925,30.012 23,28.826 23,27.462 C23,26.21 23.622,25.049 24.663,24.357 C25.564,23.755 26.181,22.796 26.352,21.727 L27.913,11.997 Z" id="Shape"></path>
                        <path d="M22,40.6030552 C32.2741837,40.6030552 40.6030552,32.2741837 40.6030552,22 C40.6030552,11.7258163 32.2741837,3.39694477 22,3.39694477 C11.7258163,3.39694477 3.39694477,11.7258163 3.39694477,22 C3.39694477,32.2741837 11.7258163,40.6030552 22,40.6030552 Z M22,44 C9.8497355,44 0,34.1502645 0,22 C0,9.8497355 9.8497355,0 22,0 C34.1502645,0 44,9.8497355 44,22 C44,34.1502645 34.1502645,44 22,44 Z" id="Combined-Shape-Copy-2"></path>
                    </g>
                </g>
            </g>
        </g>
    </g>
</svg>