<?xml version="1.0" encoding="UTF-8"?>
<svg width="44px" height="44px" viewBox="0 0 44 44" version="1.1" xmlns="http://www.w3.org/2000/svg" xmlns:xlink="http://www.w3.org/1999/xlink">
    <!-- Generator: Sketch 44 (41411) - http://www.bohemiancoding.com/sketch -->
    <title>Icon</title>
    <desc>Created with Sketch.</desc>
    <defs>
        <linearGradient x1="50%" y1="0%" x2="50%" y2="97.787787%" id="linearGradient-1">
            <stop stop-color="#D61D1D" offset="0%"></stop>
            <stop stop-color="#AC0000" offset="100%"></stop>
        </linearGradient>
    </defs>
    <g id="Index" stroke="none" stroke-width="1" fill="none" fill-rule="evenodd">
        <g id="Dads_Best_Destinations" transform="translate(-242.000000, -4411.000000)" fill-rule="nonzero" fill="url(#linearGradient-1)">
            <g id="Content" transform="translate(65.000000, 381.000000)">
                <g id="Best-Cities-for" transform="translate(153.000000, 1252.000000)">
                    <g id="For-the-Thrill-Seeking-Dad:" transform="translate(0.000000, 2754.000000)">
                        <g id="Icon" transform="translate(24.000000, 24.000000)">
                            <path d="M22,40.6030552 C32.2741837,40.6030552 40.6030552,32.2741837 40.6030552,22 C40.6030552,11.7258163 32.2741837,3.39694477 22,3.39694477 C11.7258163,3.39694477 3.39694477,11.7258163 3.39694477,22 C3.39694477,32.2741837 11.7258163,40.6030552 22,40.6030552 Z M22,44 C9.8497355,44 0,34.1502645 0,22 C0,9.8497355 9.8497355,0 22,0 C34.1502645,0 44,9.8497355 44,22 C44,34.1502645 34.1502645,44 22,44 Z" id="Combined-Shape-Copy-2"></path>
                            <g id="Group" transform="translate(12.000000, 7.000000)">
                                <path d="M12.9375,19.9375 C13,19.8125 13.375,19.5 13.4375,19.375 L19.875,10.8125 C20.0625,10.5625 20.125,10.1875 20,9.9375 C19.875,5.625 17,1.9375 13.0625,0.6875 C14.4375,2.9375 15.25,6.5625 15.375,10.3125 L18.0625,10.3125 L13.5625,16.3125 L13.625,10.1875 C13.625,10.125 13.625,10 13.5625,9.9375 C13.1875,4.0625 11.3125,0.375 10,0.375 C8.625,0.375 6.6875,4.1875 6.4375,10.3125 L6.4375,10.3125 L6.4375,10.375 L6.625,16.25 L2.1875,10.3125 L4.625,10.3125 C4.8125,6.5625 5.5625,2.9375 6.9375,0.6875 C3,1.9375 0.125,5.5625 1.11022302e-15,9.875 L1.11022302e-15,10.125 L1.11022302e-15,10.25 L1.11022302e-15,10.3125 L0,10.3125 C0,10.4375 0.0625,10.5 0.125,10.625 L6.5625,19.1875 C6.625,19.3125 7.0625,19.8125 7.1875,20 C7.4375,20.25 8.0625,23.9375 8.0625,23.9375 C6.75,24.6875 5.4375,26.25 5.75,28.9375 C5.8125,29.375 6.1875,29.75 6.625,29.75 L6.75,29.75 C7.25,29.6875 7.625,29.25 7.5625,28.75 C7.1875,25.875 9.5625,25.25 9.8125,25.25 C9.9375,25.25 10.0625,25.125 10.1875,25.0625 C10.25,26.3125 10.9375,27.9375 13.375,28.9375 C13.5,29 13.625,29 13.6875,29 C14.0625,29 14.375,28.8125 14.5625,28.4375 C14.75,28 14.5,27.4375 14.0625,27.25 C12.3125,26.5625 12.0625,24.4375 12.0625,24.4375 L12.0625,24.1875 C12.0625,24.0625 12.6875,20.1875 12.9375,19.9375 Z M11.6875,18.5625 C11.5625,18.8125 11.125,19.1875 10.0625,19.25 C9.1875,19.1875 8.75,18.9375 8.5,18.6875 L8.5,18.5625 L8.1875,10.25 L11.6875,10.25 L11.625,18.5 L11.6875,18.5625 Z" id="Shape"></path>
                                <circle id="Oval" cx="10.0625" cy="17.125" r="1.1875"></circle>
                            </g>
                        </g>
                    </g>
                </g>
            </g>
        </g>
    </g>
</svg>