<?xml version="1.0" encoding="UTF-8"?>
<svg width="44px" height="44px" viewBox="0 0 44 44" version="1.1" xmlns="http://www.w3.org/2000/svg" xmlns:xlink="http://www.w3.org/1999/xlink">
    <!-- Generator: Sketch 43.1 (39012) - http://www.bohemiancoding.com/sketch -->
    <title>Group</title>
    <desc>Created with Sketch.</desc>
    <defs>
        <linearGradient x1="50%" y1="0%" x2="50%" y2="100%" id="linearGradient-1">
            <stop stop-color="#44CC00" offset="0%"></stop>
            <stop stop-color="#3BB300" offset="100%"></stop>
        </linearGradient>
    </defs>
    <g id="Page-1" stroke="none" stroke-width="1" fill="none" fill-rule="evenodd">
        <g id="Best-Destinations-to-Explore-by-Bike" transform="translate(-181.000000, -4629.000000)" fill-rule="nonzero" fill="url(#linearGradient-1)">
            <g id="Content" transform="translate(110.000000, 356.000000)">
                <g id="Best-Cities-for" transform="translate(45.000000, 3428.000000)">
                    <g id="Up&amp;Coming-Cities" transform="translate(0.000000, 821.000000)">
                        <g id="noun_690354_cc" transform="translate(26.000000, 23.000000)">
                            <g id="Group" transform="translate(0.000000, 0.296131)">
                                <path d="M24.8530638,18.6000679 C24.8924238,19.3294143 25.6142478,19.958475 26.3683278,19.9203571 L28.3783278,19.9203571 L23.4433038,24.1279464 L19.6483278,21.1971429 C19.3738158,20.9551107 18.9995598,20.822 18.6283278,20.8343964 C18.3091758,20.8529679 17.9975598,20.9774893 17.7583278,21.1826107 L11.0383278,26.7540393 C10.3685358,27.1919071 10.2248238,28.2192786 10.7501838,28.8135643 C11.2755918,29.4078036 12.3472398,29.4299036 12.8983278,28.8576714 L18.7033038,24.0407071 C19.9941198,25.0386429 21.3058158,26.0524107 22.5883278,27.0440321 C23.1142638,27.4514429 23.9433678,27.4320357 24.4483278,27.0003893 L30.6883278,21.6755893 L30.6883278,24.0986036 C30.6777678,24.83445 31.3674798,25.5112857 32.1283278,25.5112857 C32.8891758,25.5112857 33.5790798,24.83445 33.5683278,24.0986036 L33.5683278,18.527175 C33.5682318,17.797875 32.8823118,17.1343643 32.1283278,17.1343179 L26.3683278,17.1343179 C25.5448398,17.1996429 24.8575758,17.7325036 24.8530638,18.5996964 L24.8530638,18.6000679 Z" id="Shape"></path>
                                <path d="M22,41.3069245 C32.2741837,41.3069245 40.6030552,32.978053 40.6030552,22.7038693 C40.6030552,12.4296856 32.2741837,4.10081406 22,4.10081406 C11.7258163,4.10081406 3.39694477,12.4296856 3.39694477,22.7038693 C3.39694477,32.978053 11.7258163,41.3069245 22,41.3069245 Z M22,44.7038693 C9.8497355,44.7038693 0,34.8541338 0,22.7038693 C0,10.5536048 9.8497355,0.703869286 22,0.703869286 C34.1502645,0.703869286 44,10.5536048 44,22.7038693 C44,34.8541338 34.1502645,44.7038693 22,44.7038693 Z" id="Combined-Shape-Copy-2"></path>
                            </g>
                        </g>
                    </g>
                </g>
            </g>
        </g>
    </g>
</svg>