<?xml version="1.0" encoding="UTF-8"?>
<svg width="44px" height="44px" viewBox="0 0 44 44" version="1.1" xmlns="http://www.w3.org/2000/svg" xmlns:xlink="http://www.w3.org/1999/xlink">
    <!-- Generator: Sketch 44 (41411) - http://www.bohemiancoding.com/sketch -->
    <title>Icon</title>
    <desc>Created with Sketch.</desc>
    <defs>
        <linearGradient x1="50%" y1="0%" x2="50%" y2="98.1505102%" id="linearGradient-1">
            <stop stop-color="#B9CF28" offset="0%"></stop>
            <stop stop-color="#8CAD09" offset="100%"></stop>
        </linearGradient>
    </defs>
    <g id="Index" stroke="none" stroke-width="1" fill="none" fill-rule="evenodd">
        <g id="Dads_Best_Destinations" transform="translate(-186.000000, -1662.000000)" fill-rule="nonzero" fill="url(#linearGradient-1)">
            <g id="Content" transform="translate(-14.000000, 381.000000)">
                <g id="Best-Cities-for" transform="translate(176.000000, 1185.000000)">
                    <g id="For-the-Scholarly-Dad:" transform="translate(0.000000, 72.000000)">
                        <g id="Icon" transform="translate(24.000000, 24.000000)">
                            <path d="M22,40.6030552 C32.2741837,40.6030552 40.6030552,32.2741837 40.6030552,22 C40.6030552,11.7258163 32.2741837,3.39694477 22,3.39694477 C11.7258163,3.39694477 3.39694477,11.7258163 3.39694477,22 C3.39694477,32.2741837 11.7258163,40.6030552 22,40.6030552 Z M22,44 C9.8497355,44 0,34.1502645 0,22 C0,9.8497355 9.8497355,0 22,0 C34.1502645,0 44,9.8497355 44,22 C44,34.1502645 34.1502645,44 22,44 Z" id="Combined-Shape-Copy-2"></path>
                            <path d="M30.1906256,9.93889501 C29.9510609,9.94741754 29.72794,10.0629082 29.5826616,10.2535861 C29.4373832,10.444264 29.3852564,10.6900359 29.4406256,10.92327 L29.6124992,11.688895 L22.590625,13.26702 C22.3833517,13.3133049 22.2029855,13.4401007 22.0892684,13.6194688 C21.9755514,13.798837 21.9378153,14.0160584 21.984375,14.2232701 L22.159375,15.00452 L15.134375,16.582645 C14.7039898,16.6804748 14.4341199,17.1083513 14.5312499,17.538895 L14.7062499,18.3232701 L11.584375,19.0232701 C11.5039965,18.6422697 11.1609943,18.3744641 10.771875,18.388895 C10.5323103,18.3974176 10.3091894,18.5129082 10.163911,18.7035862 C10.0186326,18.8942641 9.96650583,19.140036 10.021875,19.3732701 L10.1562499,19.976395 C10.1554731,20.0974702 10.1821857,20.2171427 10.234375,20.326395 L10.371875,20.9357699 C10.4702156,21.3653668 10.8972572,21.6347085 11.327309,21.5383769 C11.7573608,21.4420453 12.0286956,21.0162673 11.934375,20.5857699 L15.0562499,19.882645 L15.2312499,20.6607699 C15.2775348,20.8680432 15.4043306,21.0484095 15.5836987,21.1621266 C15.7630669,21.2758436 15.9802883,21.3135797 16.1875,21.26702 L23.2125,19.688895 L23.3875,20.470145 C23.4853299,20.9005302 23.9132063,21.1704001 24.3437501,21.0732701 L31.3687504,19.495145 L31.5406256,20.263895 C31.6020329,20.5441721 31.8087295,20.7701592 32.0824299,20.8562647 C32.3561303,20.9423703 32.654982,20.8754274 32.8657961,20.6807906 C33.0766102,20.4861538 33.1671503,20.1935856 33.1031248,19.913895 L32.7656256,18.420145 C32.7621354,18.401251 32.7579658,18.3824888 32.7531248,18.363895 L31.35,12.120145 L31.0031248,10.57327 C30.9227463,10.1922699 30.5797445,9.92446442 30.1906256,9.93889501 L30.1906256,9.93889501 Z M21.053125,21.557645 C20.6588193,21.5874495 20.3454295,21.9008393 20.315625,22.295145 L17.15,34.1638944 C17.0763138,34.440217 17.1556414,34.7348607 17.3581007,34.9368361 C17.56056,35.1388115 17.8553927,35.2174338 18.1315382,35.1430865 C18.4076837,35.0687393 18.6231889,34.8527178 18.696875,34.5763952 L21.1187501,25.488895 L23.5437501,34.5763952 C23.6174362,34.8527179 23.8329415,35.0687395 24.109087,35.1430868 C24.3852326,35.217434 24.6800654,35.1388118 24.8825248,34.9368364 C25.0849842,34.7348609 25.1643118,34.4402171 25.0906256,34.1638944 L21.921875,22.2857699 C21.8924507,21.967265 21.6761526,21.6968924 21.371875,21.5982701 C21.3482199,21.5909107 21.3242357,21.5846539 21.3,21.57952 C21.2979213,21.5784693 21.2958379,21.5774276 21.2937501,21.576395 C21.2679305,21.5709425 21.2418569,21.5667708 21.215625,21.563895 C21.1917728,21.560732 21.1677902,21.5586465 21.1437501,21.557645 C21.1406251,21.5576267 21.1375,21.5576267 21.134375,21.557645 C21.1073092,21.5562689 21.0801908,21.5562689 21.053125,21.557645 L21.053125,21.557645 Z" id="Shape"></path>
                        </g>
                    </g>
                </g>
            </g>
        </g>
    </g>
</svg>