<?xml version="1.0" encoding="UTF-8"?>
<svg width="44px" height="44px" viewBox="0 0 44 44" version="1.1" xmlns="http://www.w3.org/2000/svg" xmlns:xlink="http://www.w3.org/1999/xlink">
    <!-- Generator: Sketch 44 (41411) - http://www.bohemiancoding.com/sketch -->
    <title>Icon</title>
    <desc>Created with Sketch.</desc>
    <defs>
        <linearGradient x1="50%" y1="0%" x2="50%" y2="98.1505102%" id="linearGradient-1">
            <stop stop-color="#FFB707" offset="0%"></stop>
            <stop stop-color="#FF8A00" offset="100%"></stop>
        </linearGradient>
    </defs>
    <g id="Index" stroke="none" stroke-width="1" fill="none" fill-rule="evenodd">
        <g id="Dads_Best_Destinations" transform="translate(-242.000000, -3041.000000)" fill-rule="nonzero" fill="url(#linearGradient-1)">
            <g id="Content" transform="translate(65.000000, 381.000000)">
                <g id="Best-Cities-for" transform="translate(153.000000, 1252.000000)">
                    <g id="For-the-Party-Dad:" transform="translate(0.000000, 1384.000000)">
                        <g id="Icon" transform="translate(24.000000, 24.000000)">
                            <path d="M22,40.6030552 C32.2741837,40.6030552 40.6030552,32.2741837 40.6030552,22 C40.6030552,11.7258163 32.2741837,3.39694477 22,3.39694477 C11.7258163,3.39694477 3.39694477,11.7258163 3.39694477,22 C3.39694477,32.2741837 11.7258163,40.6030552 22,40.6030552 Z M22,44 C9.8497355,44 0,34.1502645 0,22 C0,9.8497355 9.8497355,0 22,0 C34.1502645,0 44,9.8497355 44,22 C44,34.1502645 34.1502645,44 22,44 Z" id="Combined-Shape-Copy-2"></path>
                            <g id="Group" transform="translate(8.000000, 11.000000)">
                                <path d="M14.8020865,5.2637212 C14.5493849,5.2637212 14.3449263,5.05926263 14.3449263,4.80702047 L14.3449263,4.36134672 L14.3449263,0.566687458 C14.3449263,0.314445306 14.5493849,0.109527273 14.8020865,0.109527273 C15.0547881,0.109527273 15.2592467,0.313985848 15.2592467,0.566687458 L15.2592467,4.36088727 L15.2592467,4.80656102 C15.2592467,5.05880317 15.0547881,5.2637212 14.8020865,5.2637212 Z M22.8499436,5.503558 C22.8067546,4.49137319 21.9939743,3.69467393 20.9891408,3.66664703 L20.9891408,2.94989337 C21.9944338,2.92186646 22.8067546,2.12516721 22.8499436,1.10930673 C22.8499436,1.10149596 22.8494841,1.09322572 22.8490247,1.08541494 L23.396698,1.08541494 C23.3957791,1.09368518 23.3953196,1.10241487 23.3953196,1.11298239 C23.4385086,2.12516721 24.2512889,2.92186646 25.2565818,2.94989337 L25.2565818,3.66664703 C24.2512889,3.69467393 23.4385086,4.49137319 23.3953196,5.50769312 C23.3957791,5.5155039 23.3962385,5.52331467 23.396698,5.53112545 L22.8490247,5.53112545 C22.8494841,5.52285522 22.8499436,5.51412552 22.8499436,5.503558 Z M2.89800283,7.79487242 C2.83689498,6.35860836 1.68365673,5.22742406 0.256581818,5.1869918 L0.256581818,4.16975296 C1.68365673,4.12978016 2.83689498,2.99905532 2.89800283,1.55727777 C2.89800283,1.54579133 2.89708391,1.53476435 2.89662446,1.52327792 L3.6740265,1.52327792 C3.67310758,1.53522381 3.67264813,1.54762916 3.67218867,1.56279126 C3.73375597,2.99951478 4.88745368,4.13069907 6.31406914,4.17021242 L6.31406914,5.18745126 C4.88745368,5.22742406 3.73375597,6.3581489 3.67218867,7.80038591 C3.67264813,7.81187234 3.67310758,7.82289932 3.6740265,7.8339263 L2.89662446,7.8339263 C2.89708391,7.82243987 2.89754337,7.80957506 2.89800283,7.79487242 Z M15.2592467,15.2909211 L19.4867149,15.2909211 L19.4867149,19.4499301 L15.2592467,19.4499301 L15.2592467,15.2909211 Z M9.48065004,19.4499301 L6.42433893,19.4499301 C5.73653109,18.2061787 5.32715449,16.7928876 5.25547912,15.2909211 L9.48065004,15.2909211 L9.48065004,19.4499301 Z M19.4867149,6.49736451 L19.4867149,6.49736451 L19.4867149,9.90837679 L15.2592467,9.90837679 L15.2592467,5.28669407 C16.7892401,5.35974781 18.2259636,5.78612435 19.4867149,6.49736451 Z M20.4010352,9.90883625 L20.4010352,7.08868628 C21.4435443,7.84449382 22.3247837,8.80338157 22.9923754,9.90883625 L20.4010352,9.90883625 Z M14.3449263,20.3642505 L14.3449263,24.3803683 C12.9132568,24.3123686 11.5624518,23.9356134 10.3618895,23.3033999 C10.3821056,23.2519407 10.3954299,23.1963464 10.3954299,23.1375358 L10.3954299,20.3642505 L14.3449263,20.3642505 Z M20.4010352,22.5783761 L20.4010352,20.3642505 L22.5981609,20.3642505 C21.9912176,21.217463 21.2482748,21.9640814 20.4010352,22.5783761 Z M19.4867149,20.3642505 L19.4867149,20.3642505 L19.4867149,23.1696978 C18.2259636,23.880938 16.7892401,24.307774 15.2592467,24.3803683 L15.2592467,20.3642505 L19.4867149,20.3642505 Z M10.3949704,15.2909211 L14.3444668,15.2909211 L14.3444668,19.4499301 L10.3949704,19.4499301 L10.3949704,15.2909211 Z M15.2592467,10.8231566 L19.4867149,10.8231566 L19.4867149,14.3761413 L15.2592467,14.3761413 L15.2592467,10.8231566 Z M10.3949704,10.8231566 L14.3444668,10.8231566 L14.3444668,14.3761413 L10.3949704,14.3761413 L10.3949704,10.8231566 Z M9.48065004,20.3642505 L9.48065004,22.7823752 C8.51532989,22.1340807 7.6800362,21.3107329 7.00647155,20.3642505 L9.48065004,20.3642505 Z M20.4010352,19.4499301 L20.4010352,15.2909211 L24.3491533,15.2909211 C24.2774779,16.7924281 23.8681013,18.2061787 23.179834,19.4499301 L20.4010352,19.4499301 Z M9.48065004,10.8231566 L9.48065004,10.8231566 L9.48065004,14.3761413 L5.25547912,14.3761413 C5.31566805,13.1121737 5.61890998,11.9134492 6.12477266,10.8231566 L9.48065004,10.8231566 Z M10.3949704,9.90883625 L10.3949704,9.90883625 L10.3949704,6.37055425 C10.3949704,6.36320293 10.3912947,6.35722999 10.3908353,6.34987867 C11.5840463,5.72685433 12.9242838,5.35469378 14.3444668,5.28715353 L14.3444668,9.90883625 L10.3949704,9.90883625 Z M20.4010352,10.8231566 L23.4798598,10.8231566 C23.9857224,11.9134492 24.2889644,13.1121737 24.3491533,14.3761413 L20.4010352,14.3761413 L20.4010352,10.8231566 Z M9.48065004,6.88514662 L9.48065004,9.90929571 L6.61225704,9.90929571 C7.33911876,8.70505767 8.31546589,7.66806215 9.48065004,6.88514662 Z" id="Combined-Shape"></path>
                            </g>
                        </g>
                    </g>
                </g>
            </g>
        </g>
    </g>
</svg>