<?xml version="1.0" encoding="UTF-8"?>
<svg width="16px" height="16px" viewBox="0 0 16 16" version="1.1" xmlns="http://www.w3.org/2000/svg" xmlns:xlink="http://www.w3.org/1999/xlink">
    <!-- Generator: Sketch 44 (41411) - http://www.bohemiancoding.com/sketch -->
    <title>Bonus Icon</title>
    <desc>Created with Sketch.</desc>
    <defs>
        <linearGradient x1="50%" y1="0%" x2="50%" y2="98.1505102%" id="linearGradient-1">
            <stop stop-color="#B9CF28" offset="0%"></stop>
            <stop stop-color="#8CAD09" offset="100%"></stop>
        </linearGradient>
    </defs>
    <g id="Index" stroke="none" stroke-width="1" fill="none" fill-rule="evenodd">
        <g id="Dads_Best_Destinations" transform="translate(-255.000000, -2824.000000)">
            <g id="Content" transform="translate(110.000000, 381.000000)">
                <g id="Best-Cities-for" transform="translate(108.000000, 1252.000000)">
                    <g id="For-the-Scholarly-Dad:" transform="translate(0.000000, 72.000000)">
                        <g id="Group-18" transform="translate(24.000000, 316.000000)">
                            <g id="Cities" transform="translate(13.000000, 30.000000)">
                                <g id="Bonus-Pick" transform="translate(0.000000, 768.000000)">
                                    <g id="Group-24">
                                        <g id="Bonus-Icon" transform="translate(0.000000, 5.000000)">
                                            <rect id="Rectangle-12" fill="#D8D8D8" opacity="0" x="0" y="0" width="16" height="16"></rect>
                                            <path d="M5.1753269,3.00065012 C6.12863288,1.06585536 6.65392393,0 7.76032616,0 L7.82014643,0.000363649048 L7.87069365,0.00418196406 C8.9209121,0.0874575961 9.4347482,1.12494833 10.3671444,3.0086504 C10.5635149,3.40539151 10.8386154,3.96068361 11.0193489,4.27160355 C11.1257163,4.27978565 11.2829945,4.28687681 11.5115479,4.28687681 C11.7877394,4.28687681 12.0899317,4.27742193 12.4099429,4.26742158 C12.7343178,4.25723941 13.0694204,4.24669359 13.3834314,4.24669359 C14.3349191,4.24669359 15.0234886,4.33851497 15.5129602,4.79525818 C15.8435172,5.10345075 16.0162505,5.52255627 15.9987954,5.97529934 C15.9613395,6.9633338 15.1016731,7.69735941 13.5852566,8.90976533 C13.3068833,9.13213673 12.929961,9.43360179 12.679225,9.65633683 C12.7739556,9.98707564 12.9343248,10.4601831 13.0526926,10.8092861 C13.7210795,12.7813549 14.044909,13.8486649 13.5130723,14.6728755 C13.267791,15.0532524 12.8681407,15.2968972 12.4172159,15.3412624 C12.3639413,15.3463535 12.3090303,15.3490809 12.2541193,15.3490809 C11.5240938,15.3490809 10.6787916,14.8690641 9.24783259,14.0208527 C8.76872497,13.736661 8.01469867,13.2897363 7.62232135,13.1171848 C7.26503616,13.2948274 6.60410401,13.7124783 6.14099695,14.005034 C4.68294609,14.9263388 3.88855474,15.4076284 3.14125595,15.4207197 C2.68105808,15.4207197 2.26467992,15.2072577 1.99848881,14.8354266 C1.44556044,14.0623087 1.77757202,13.0888202 2.38050214,11.3211222 C2.55359909,10.8136499 2.82524493,10.0172585 2.91379347,9.60488049 C2.67614882,9.33123458 2.1644946,8.89521937 1.83630134,8.61539143 C0.822447791,7.75117947 0.0218744111,7.06842838 0.00041911721,6.12312268 C-0.00976305614,5.67565252 0.165879434,5.26000166 0.494799998,4.95271821 C1.10918507,4.37851637 2.06940038,4.32396901 3.58490779,4.28251302 C3.87528155,4.27451274 4.27129537,4.26378509 4.53948654,4.24214797 C4.71949282,3.9257733 4.98441115,3.38793636 5.1753269,3.00065012 Z" id="Shape" fill="url(#linearGradient-1)" fill-rule="nonzero"></path>
                                        </g>
                                    </g>
                                </g>
                            </g>
                        </g>
                    </g>
                </g>
            </g>
        </g>
    </g>
</svg>