<?xml version="1.0" encoding="UTF-8"?>
<svg width="16px" height="16px" viewBox="0 0 16 16" version="1.1" xmlns="http://www.w3.org/2000/svg" xmlns:xlink="http://www.w3.org/1999/xlink">
    <!-- Generator: Sketch 44 (41411) - http://www.bohemiancoding.com/sketch -->
    <title>Shape</title>
    <desc>Created with Sketch.</desc>
    <defs>
        <linearGradient x1="50%" y1="0%" x2="50%" y2="97.787787%" id="linearGradient-1">
            <stop stop-color="#D61D1D" offset="0%"></stop>
            <stop stop-color="#AC0000" offset="100%"></stop>
        </linearGradient>
    </defs>
    <g id="Index" stroke="none" stroke-width="1" fill="none" fill-rule="evenodd">
        <g id="Dads_Best_Destinations" transform="translate(-255.000000, -5612.000000)" fill-rule="nonzero" fill="url(#linearGradient-1)">
            <g id="Content" transform="translate(65.000000, 381.000000)">
                <g id="Best-Cities-for" transform="translate(153.000000, 1252.000000)">
                    <g id="For-the-Thrill-Seeking-Dad:" transform="translate(0.000000, 2754.000000)">
                        <g id="Group-19" transform="translate(24.000000, 292.000000)">
                            <g id="Cities" transform="translate(13.000000, 24.000000)">
                                <g id="Bonus" transform="translate(0.000000, 903.000000)">
                                    <g id="Bonus-Icon" transform="translate(0.000000, 5.000000)">
                                        <path d="M5.1753269,4.11336973 C6.12863288,2.10589428 6.65392393,1 7.76032616,1 L7.82014643,1.00037731 L7.87069365,1.00433906 C8.9209121,1.09074295 9.4347482,2.16720708 10.3671444,4.12167054 C10.5635149,4.53331525 10.8386154,5.10946693 11.0193489,5.4320666 C11.1257163,5.44055606 11.2829945,5.4479136 11.5115479,5.4479136 C11.7877394,5.4479136 12.0899317,5.43810355 12.4099429,5.42772754 C12.7343178,5.41716287 13.0694204,5.40622089 13.3834314,5.40622089 C14.3349191,5.40622089 15.0234886,5.50149155 15.5129602,5.97539234 C15.8435172,6.29516218 16.0162505,6.73001144 15.9987954,7.19976182 C15.9613395,8.22491186 15.1016731,8.98651118 13.5852566,10.2444612 C13.3068833,10.475186 12.929961,10.7879756 12.679225,11.0190777 C12.7739556,11.3622407 12.9343248,11.8531205 13.0526926,12.2153376 C13.7210795,14.2614873 14.044909,15.3688908 13.5130723,16.2240629 C13.267791,16.6187287 12.8681407,16.8715261 12.4172159,16.9175579 C12.3639413,16.9228402 12.3090303,16.92567 12.2541193,16.92567 C11.5240938,16.92567 10.6787916,16.4276214 9.24783259,15.5475469 C8.76872497,15.2526795 8.01469867,14.7889661 7.62232135,14.6099327 C7.26503616,14.7942484 6.60410401,15.2275884 6.14099695,15.5311339 C4.68294609,16.4870477 3.88855474,16.9864169 3.14125595,17 C2.68105808,17 2.26467992,16.7785193 1.99848881,16.3927203 C1.44556044,15.5905602 1.77757202,14.5805025 2.38050214,12.7464008 C2.55359909,12.2198653 2.82524493,11.3935574 2.91379347,10.9656884 C2.67614882,10.681763 2.1644946,10.2293688 1.83630134,9.93902914 C0.822447791,9.042353 0.0218744111,8.33395432 0.00041911721,7.35313815 C-0.00976305614,6.88885876 0.165879434,6.45759394 0.494799998,6.13876738 C1.10918507,5.5429956 2.06940038,5.48639917 3.58490779,5.44338588 C3.87528155,5.43508507 4.27129537,5.42395444 4.53948654,5.40150452 C4.71949282,5.07324522 4.98441115,4.5152044 5.1753269,4.11336973 Z" id="Shape"></path>
                                    </g>
                                </g>
                            </g>
                        </g>
                    </g>
                </g>
            </g>
        </g>
    </g>
</svg>