<?xml version="1.0" encoding="UTF-8"?>
<svg width="15px" height="15px" viewBox="0 0 15 15" version="1.1" xmlns="http://www.w3.org/2000/svg" xmlns:xlink="http://www.w3.org/1999/xlink">
    <!-- Generator: Sketch 44 (41411) - http://www.bohemiancoding.com/sketch -->
    <title>Culture</title>
    <desc>Created with Sketch.</desc>
    <defs>
        <linearGradient x1="50%" y1="0%" x2="50%" y2="100%" id="linearGradient-1">
            <stop stop-color="#4298E1" offset="0%"></stop>
            <stop stop-color="#1763CC" offset="100%"></stop>
        </linearGradient>
    </defs>
    <g id="Index" stroke="none" stroke-width="1" fill="none" fill-rule="evenodd">
        <g id="Dads_Best_Destinations" transform="translate(-1086.000000, -1263.000000)">
            <g id="Content" transform="translate(110.000000, 381.000000)">
                <g id="Subheader" transform="translate(45.000000, 612.000000)">
                    <g id="Culture" transform="translate(930.000000, 269.000000)">
                        <rect id="Rectangle-2" fill="#D8D8D8" opacity="0" x="0" y="0" width="16" height="16"></rect>
                        <path d="M15.7388436,1.12906747 C15.5475085,1.00151075 15.2923951,0.969621574 15.10106,1.06528911 C13.1558201,2.05385365 11.0192451,2.56408051 8.75511343,2.56408051 L8.75511343,2.56408051 C4.89652281,2.56408051 1.93082919,1.09717829 1.89894001,1.06528911 C1.67571576,0.969621574 1.45249151,0.969621574 1.26115644,1.12906747 C1.06982137,1.28851336 0.974153833,1.47984843 1.00604301,1.73496186 L2.40916687,10.7914886 C2.60050195,12.3221692 3.36584223,13.6934039 4.6095202,14.6500792 C5.69375228,15.511087 7.09687614,15.9894247 8.5,15.9894247 C9.90312386,15.9894247 11.3062477,15.511087 12.3904798,14.6500792 C13.6341578,13.6615147 14.3994981,12.29028 14.5908331,10.7914886 L15.993957,1.73496186 C16.0258462,1.47984843 15.9301786,1.25662418 15.7388436,1.12906747 Z M4.29062842,6.77345209 C4.00362581,6.55022784 3.97173663,6.1675577 4.1630717,5.91244427 C4.38629595,5.62544166 4.7689661,5.59355248 5.02407952,5.78488755 C5.08785788,5.84866591 5.72564146,6.26322523 6.36342503,5.78488755 C6.65042764,5.5616633 7.03309778,5.62544166 7.22443285,5.91244427 C7.4476571,6.19944688 7.38387875,6.58211702 7.09687614,6.77345209 C6.61853846,7.12423306 6.14020078,7.25178977 5.69375228,7.25178977 C5.15163624,7.25178977 4.6095202,6.99667634 4.29062842,6.77345209 Z M11.3700261,10.4407076 C10.5409074,11.3336046 9.61612125,11.8119423 8.59566754,11.8119423 C6.90554107,11.8119423 5.69375228,10.504486 5.62997392,10.4407076 C5.40674967,10.1855942 5.40674967,9.80292407 5.6618631,9.54781064 C5.91697653,9.32458639 6.29964667,9.32458639 6.5547601,9.57969982 C6.5547601,9.61158899 7.47954628,10.5363752 8.59566754,10.5363752 L8.59566754,10.5363752 C9.23345111,10.5363752 9.87123468,10.2174834 10.4452399,9.57969982 C10.6684641,9.32458639 11.0830235,9.32458639 11.3381369,9.54781064 C11.5932503,9.77103489 11.5932503,10.1855942 11.3700261,10.4407076 Z M12.7093716,6.77345209 C12.2310339,7.12423306 11.7526962,7.25178977 11.3062477,7.25178977 C10.6684641,7.25178977 10.1263481,6.99667634 9.8393455,6.77345209 C9.5523429,6.55022784 9.52045372,6.1675577 9.71178879,5.91244427 C9.93501304,5.62544166 10.3176832,5.59355248 10.5727966,5.78488755 C10.636575,5.84866591 11.2743585,6.26322523 11.9121421,5.78488755 C12.1991447,5.5616633 12.5818149,5.62544166 12.7731499,5.91244427 C13.0282634,6.1675577 12.964485,6.55022784 12.7093716,6.77345209 Z" id="Shape" fill="url(#linearGradient-1)" fill-rule="nonzero"></path>
                    </g>
                </g>
            </g>
        </g>
    </g>
</svg>