<?xml version="1.0" encoding="UTF-8"?>
<svg width="90px" height="121px" viewBox="0 0 90 121" version="1.1" xmlns="http://www.w3.org/2000/svg" xmlns:xlink="http://www.w3.org/1999/xlink">
    <!-- Generator: Sketch 44 (41411) - http://www.bohemiancoding.com/sketch -->
    <title>Icon</title>
    <desc>Created with Sketch.</desc>
    <defs>
        <linearGradient x1="50%" y1="0%" x2="50%" y2="100%" id="linearGradient-1">
            <stop stop-color="#4298E1" offset="0%"></stop>
            <stop stop-color="#1763CC" offset="100%"></stop>
        </linearGradient>
    </defs>
    <g id="Index" stroke="none" stroke-width="1" fill="none" fill-rule="evenodd">
        <g id="Dads_Best_Destinations" transform="translate(-155.000000, -999.000000)" fill-rule="nonzero" fill="url(#linearGradient-1)">
            <g id="Content" transform="translate(110.000000, 381.000000)">
                <g id="Header" transform="translate(1.000000, 0.000000)">
                    <g id="Icon" transform="translate(44.000000, 612.000000)">
                        <g id="Road" transform="translate(0.000000, 6.000000)">
                            <path d="M20.8064798,32.5322068 L34.2857143,8 L38.4953104,15.3257034 L46.445122,0 L52.9793749,12.1618441 L54,13.1724138 L53.6882003,13.4811416 L63,30.8126801 L61.6762467,30.8126801 C66.9866559,31.940568 72.0943628,33.5606992 76.9612469,35.5760839 C80.435905,37.0149456 83.5388317,38.5573438 86.2300797,40.101364 C87.1747002,40.6433107 88.0012428,41.1474072 88.7046998,41.6009415 C88.9525161,41.7607142 89.1676657,41.903071 89.3495217,42.026424 C89.4608792,42.1019579 89.5376794,42.1553063 89.5792947,42.1848818 L88.4207053,43.8151182 C88.2898837,43.7221448 88.0215975,43.5401662 87.6209673,43.281871 C86.9460448,42.8467335 86.1489479,42.3605955 85.234808,41.836136 C82.6153116,40.3332812 79.5886736,38.8288044 76.1960565,37.4239161 C76.159601,37.4088198 76.1231317,37.3937462 76.0866486,37.3786954 C79.7928176,41.8489101 81.7292183,47.9692575 81.7462303,55.3688184 C81.6794018,62.3085095 79.9881883,67.8502304 79.9242537,68.0470007 L77.9451766,67.4039595 C78.0091111,67.2071892 84.387306,45.8936202 71.468368,35.8223173 L71.5916928,35.6663415 C68.3934499,34.5477634 65.1004161,33.6065579 61.7232678,32.8690382 C70.6223552,44.7227522 59.0650918,65.1578301 58.9837589,65.4613687 L57.2019361,64.2846051 C57.357767,64.0936679 69.6050175,42.1729384 58.1247278,32.1668245 C53.7101846,31.4075581 49.1629278,31 44.505618,31 C33.4120075,31 23.1328012,33.304879 13.7422845,37.1813689 C10.4032696,38.5597443 7.47689722,40.0106793 4.71984128,41.56364 C4.25393131,41.8260721 3.81113499,42.0810663 3.34111214,42.3562367 C3.08293018,42.5073868 2.37011238,42.9282052 2.33111127,42.9511142 C2.00413476,43.1431784 1.81318662,43.2518264 1.66439735,43.3280765 C1.54471846,43.3894083 1.44902269,43.4321156 1.34355311,43.4642197 C1.19843008,43.5083939 1.06061288,43.53014 0.874387858,43.5040519 C0.390995151,43.4363339 0,43.0285181 0,42.5 L2,42.5 C2,41.9873662 1.6177362,41.5886573 1.15185656,41.5233927 C0.983019968,41.4997405 0.8712914,41.5173701 0.752258012,41.5481883 C0.854987474,41.4955425 1.02497286,41.3988222 1.31814835,41.2266125 C1.354063,41.2055164 2.06860522,40.7836801 2.3306579,40.6302639 C2.80970565,40.34981 3.26193705,40.0893823 3.73830263,39.8210609 C6.56196643,38.2305821 9.55968594,36.7442723 12.9791345,35.3326931 C15.524696,34.2818624 18.134261,33.3437169 20.8064798,32.5322068 Z M23.6121762,31.7333954 C26.1831803,31.0499216 28.8099253,30.4843011 31.4912656,30.0483728 L31,29.7752161 L35.2986169,21.4883118 L34.4864865,22.2708333 L33.0810811,20.9166667 L30.9189189,23 L29.3932012,21.5299074 L24.1269841,31.4103586 L23.6121762,31.7333954 Z M33.4104856,29.7599421 C37.0135386,29.2626174 40.7128163,29 44.505618,29 C49.9493528,29 55.2438426,29.5427111 60.3557152,30.5432247 L52.0748837,15.0785634 L50.1343284,17 L47,13.8965517 L43.8656716,17 L41.317249,14.476685 L39.7491592,17.5077001 L40,17.9442231 L39.3367106,18.3049362 L33.4104856,29.7599421 Z M51.0612787,13.1856304 L46.445122,4.5648415 L42.3081727,12.5612942 L43.8656716,14.1034483 L47,11 L50.1343284,14.1034483 L51.0612787,13.1856304 Z M30.4202916,19.6028851 L30.9189189,20.0833333 L33.0810811,18 L35.7660886,20.5871166 L37.30923,17.6122377 L34.2857143,12.3505976 L30.4202916,19.6028851 Z M70.2339694,66.4463318 L68.3542967,65.6175081 C68.5465739,65.0257396 68.8360394,64.4655494 69.0603629,63.7751529 C69.4449174,62.5916159 69.7643298,61.2778724 69.986554,59.9325506 L72.0264577,60.2682339 C71.7721874,61.7121838 71.4207287,63.1245554 71.004128,64.4067204 C70.7798046,65.097117 70.4582929,65.7559352 70.2339694,66.4463318 Z M70.5497404,53.9002309 C70.5754888,51.836827 70.3748145,49.8088945 70.0128595,47.9466398 L71.9855219,47.4971914 C72.3805728,49.5882807 72.5492009,51.7148413 72.5885946,53.9084516 L70.5497404,53.9002309 Z M70.2146305,43.237455 C69.4318762,41.3475148 68.3586068,39.6903021 67.1240568,38.1987672 L68.7379131,36.869452 C70.0376052,38.4911933 71.1760167,40.2786125 72.1211012,42.3303375 L70.2146305,43.237455 Z" id="Combined-Shape"></path>
                        </g>
                        <g id="Family" transform="translate(1.000000, 51.000000)">
                            <path d="M31.050036,10.1904386 C29.3339431,7.91763082 29.5206103,5.73975307 33.1199221,4.143606 C33.1199221,4.143606 29.3565863,1.91975377 32.1877385,2.0851924 C35.0188874,2.25057413 34.989577,1.94125048 34.4113032,0.944145816 C33.8331393,-0.0529592807 34.2672804,-0.319748124 36.8437187,0.431491501 C39.4201571,1.18278802 47.1105062,2.97756494 42.621422,9.2782017 C38.1324545,15.5788384 32.7662422,12.4632455 31.050036,10.1904386 Z M73.4369748,49.2244744 C77.5926997,55.4611387 76.4383316,59.2724315 71.8208591,51.7653348 C67.2033805,44.2582429 69.8584269,53.4977472 69.6275534,67.5879879 C69.3966798,81.6782285 67.4342541,71.861249 65.4718285,63.3147136 C63.5094029,54.7681781 64.0427336,69.0040234 60.7389197,75.2752023 C58.2378631,80.0227967 57.4370207,60.100231 56.0060043,54.6141648 C54.4946207,48.819797 52.2460833,43.9900631 52.2460833,43.9900631 L52.2460833,43.9900925 C49.4317435,39.6336129 45.7208553,31.5748477 44.5777577,30.1680023 C42.6073294,27.7427453 47.6169944,68.398752 44.0812906,74.5374039 C41.1656078,79.5993415 41.1427237,57.1932064 38.2918602,50.6103977 C35.4409999,44.0275661 32.3801176,51.6501812 31.6412776,58.579471 C30.9023233,65.5087281 25.205109,80.6758334 27.0860302,54.7889321 C28.8907473,29.9497032 28.142774,29.8160221 26.2834984,33.3297435 C17.9825267,49.0176526 23.7539207,60.8079708 23.7539207,60.8079708 C23.7539207,60.8079708 21.6115741,61.8929238 18.3424784,62.7081475 C17.5832329,68.8917467 16.7058449,74.3813634 15.2610811,71.6388926 C14.1183234,69.4698887 13.4348343,66.3484588 12.9481721,63.5460409 C11.8856804,63.6081328 10.7810264,63.6089763 9.65078177,63.5251169 C8.01595288,70.6318811 6.56859526,75.9280689 6.37244323,63.9516257 C6.36737005,63.6427553 6.36410058,63.3371609 6.36173313,63.03309 C4.43865051,62.5923726 2.49223159,61.8610605 0.600599887,60.7309378 C0.600599887,60.7309378 5.46089731,57.0402127 6.80161085,50.6470274 L6.80172358,50.6470013 C7.10914194,45.2596504 7.04240536,43.4738101 4.1791423,48.128976 C-0.438331617,55.6360712 -1.59270061,51.8247784 2.56302669,45.5881141 C6.71875399,39.3514499 11.1560835,36.5202451 19.2313642,40.4470317 L19.2322662,40.4468616 C19.2322662,40.4468616 20.5777147,28.8540754 27.2348377,16.809183 C27.2348377,16.809183 30.58059,14.6918352 39.3062182,15.0383164 C48.0318463,15.3847387 55.1183641,32.6152505 55.6343299,43.7020888 C55.6497799,44.0326677 55.6555246,44.3317202 55.6533875,44.6045261 L55.6544005,44.6047223 C63.7296829,40.6779325 69.2812434,42.9878101 73.4369748,49.2244744 Z M62.9999968,41 C60.79087,41 58.9999999,38.9852603 59,36.5000016 C59,34.0147397 60.79087,32 62.9999968,32 C65.2091236,32 67,34.0147397 67,36.5000016 C67,38.9852603 65.2091235,41 62.9999968,41 Z M12.0000008,37 C10.8118223,37 9.74745948,36.3988225 9.01279947,35.4491353 C8.06269605,35.327885 7.05568303,35.0487684 6,34.5572301 C6,34.5572301 7.42493579,33.8281152 7.12500711,31.4105848 C6.82496857,28.9930511 8.51247878,24.9254418 11.1374583,27.1127312 C11.1374583,27.1127312 14.2125509,24.2468872 15.8250239,27.7136286 C17.4374968,31.1803438 16.3500629,30.7198585 18,31.6408258 C18,31.6408258 17.2321607,32.6117602 15.8665516,33.5825285 C15.4013886,35.5511555 13.84879,37 12.0000008,37 Z" id="Combined-Shape"></path>
                        </g>
                    </g>
                </g>
            </g>
        </g>
    </g>
</svg>