<?xml version="1.0" encoding="UTF-8"?>
<svg width="95px" height="73px" viewBox="0 0 95 73" version="1.1" xmlns="http://www.w3.org/2000/svg" xmlns:xlink="http://www.w3.org/1999/xlink">
    <!-- Generator: Sketch 43.1 (39012) - http://www.bohemiancoding.com/sketch -->
    <title>Group 28</title>
    <desc>Created with Sketch.</desc>
    <defs>
        <linearGradient x1="50%" y1="0%" x2="50%" y2="100%" id="linearGradient-1">
            <stop stop-color="#44CC00" offset="0%"></stop>
            <stop stop-color="#3BB300" offset="100%"></stop>
        </linearGradient>
    </defs>
    <g id="Page-1" stroke="none" stroke-width="1" fill="none" fill-rule="evenodd">
        <g id="Best-Destinations-to-Explore-by-Bike" transform="translate(-154.000000, -999.000000)" fill="url(#linearGradient-1)">
            <g id="Content" transform="translate(110.000000, 356.000000)">
                <g id="Header">
                    <g id="Icons_1" transform="translate(44.000000, 643.000000)">
                        <g id="Group-28">
                            <path d="M84.6523085,59.8218754 C84.7929262,60.4844707 84.8669517,61.1713476 84.8669517,61.8754726 C84.8669517,66.3742781 81.8805466,70.1689761 77.7598945,71.4251269 L93.2792383,71.4251269 C93.5659082,71.4251269 93.7982129,71.7569619 93.7982129,72.1662437 C93.7982129,72.5755254 93.5659082,72.9073604 93.2792383,72.9073604 L2.32286133,72.9073604 C2.03637695,72.9073604 1.80388672,72.5755254 1.80388672,72.1662437 C1.80388672,71.7569619 2.03637695,71.4251269 2.32286133,71.4251269 L42.285533,71.4251269 C38.1648809,70.1689761 35.1784758,66.3742781 35.1784758,61.8754726 C35.1784758,56.3484964 39.7394424,51.8842425 45.3201115,51.8310877 C47.6273606,51.8310877 49.7201115,52.5752544 51.3836803,53.8505956 C52.3494796,51.990552 53.1005948,49.7052702 53.2617472,46.9417821 C53.2080297,46.1446472 53.3152788,45.6664409 53.3152788,45.6132861 L53.3152788,45.5069766 C53.2617472,45.4538218 53.2617472,45.4006671 53.2617472,45.3475123 C53.2080297,44.8159647 53.5836803,44.3377583 54.1202974,44.2314488 L59.8617472,43.0622306 L65.8715985,35.3562821 C66.5154647,34.5059925 67.5886989,33.9744448 68.7154647,33.9744448 C70.7009665,33.9744448 72.310632,35.5689012 72.310632,37.5352544 L72.310632,46.3041115 C72.310632,48.0578456 71.3448327,49.7052702 69.8424164,50.5557464 L60.8275465,55.763794 L60.8275465,55.9232583 C62.1154647,56.8267028 63.617881,57.6769925 65.3349814,58.3680044 C66.7838662,54.5945758 70.4325651,51.8842425 74.7790335,51.8842425 C79.3769647,51.8842425 83.306361,54.9738442 84.4974289,59.1946317 C84.5343084,58.8305374 84.7950883,58.5482419 85.1113906,58.5482419 L94.2651602,58.5482419 C94.606752,58.5482419 94.8835879,58.877483 94.8835879,59.2834297 L94.8835879,59.3569855 C94.8835879,59.7631175 94.606752,60.0304754 94.2651602,60.0304754 L85.1113906,60.0304754 C84.9292261,60.0304754 84.7654774,59.9544418 84.6523085,59.8218754 Z M48.2473239,71.4251269 L71.7981724,71.4251269 C67.6775203,70.1689761 64.6911152,66.3742781 64.6911152,61.8754726 C64.6911152,61.3972663 64.7448327,60.9188734 64.7983643,60.4404806 C63.3496654,59.8559647 62.0617472,59.218294 60.8812639,58.5272821 L61.095948,65.9676433 C61.095948,66.4990044 60.6665799,66.9773972 60.1299628,67.030552 L60.0227138,67.030552 C59.4860967,67.030552 59.0569145,66.6584687 58.9494796,66.1802623 L56.6422305,55.1261234 C56.3202974,54.7540401 55.9983643,54.3821433 55.7299628,54.0100599 C55.1933457,53.2660798 54.7641636,52.5752544 54.4422305,51.8842425 C54.0128625,53.1597702 53.5299628,54.3289885 52.9396283,55.3918972 C54.4422305,57.1456313 55.3543123,59.3777583 55.3543123,61.8754726 C55.3543123,66.3742781 52.3680303,70.1689761 48.2473239,71.4251269 Z M17.3169414,59.1040609 L17.3169414,46.2763119 C16.3042266,46.6590987 15.2143242,46.8762459 14.0693145,46.8762459 C8.95638477,46.8762459 4.81052539,42.7102434 4.81052539,37.5689312 C4.81052539,36.1446901 5.13820117,34.800119 5.70783008,33.5919135 C2.35574023,32.1902764 3.7109375e-05,28.8721114 3.7109375e-05,24.9960708 C3.7109375e-05,20.2238348 3.57626758,16.2935074 8.17912891,15.7554566 C8.17912891,15.7339642 8.17727344,15.7095074 8.17727344,15.6872739 C8.17727344,7.07345914 14.0980742,0.0936215736 21.4050957,0.0936215736 C27.1334844,0.0936215736 31.9951836,4.39246929 33.8326543,10.3962561 C34.0196855,10.3851393 34.2020781,10.3673525 34.3892949,10.3673525 C39.5040801,10.3673525 43.648084,14.5352079 43.648084,19.6763348 C43.648084,22.5405657 42.3589043,25.1009388 40.3353301,26.8088424 C42.359832,28.515449 43.6490117,31.0747104 43.6490117,33.9409794 C43.6490117,39.0813652 39.5050078,43.2490353 34.3911504,43.2490353 C32.986375,43.2490353 31.6600859,42.9262789 30.4666484,42.3639566 C28.9579668,44.1231825 27.094334,45.4566368 25.0111992,46.2014591 L25.0111992,59.1040609 L33.9314395,59.1040609 C34.2901016,59.1040609 34.5808535,59.4603528 34.5808535,59.9378173 C34.5808535,60.4152817 34.2901016,60.7715736 33.9314395,60.7715736 L3.1306582,60.7715736 C2.77199609,60.7715736 2.48124414,60.4152817 2.48124414,59.9378173 C2.48124414,59.4603528 2.77199609,59.1040609 3.1306582,59.1040609 L17.3169414,59.1040609 Z M87.8302832,56.4465475 L87.8302832,53.9996188 C86.9906986,54.0144861 86.0024105,53.5941359 85.2042996,52.794092 C84.3525346,51.9434493 83.9305799,50.8818293 84.0093224,50.0091162 C84.8827835,49.931496 85.9436554,50.3534507 86.7942982,51.2040934 C87.2889831,51.6980182 87.6390715,52.2638943 87.8302832,52.822449 L87.8302832,51.7452718 C87.0398535,50.9906297 86.5175391,49.71665 86.5175391,48.2736957 C86.5175391,46.7212414 87.1194531,45.3653683 88.0130469,44.6392591 C88.9064551,45.3653683 89.5087402,46.7212414 89.5087402,48.2736957 C89.5087402,49.71665 88.9888379,50.9906297 88.197666,51.7452718 L88.197666,57.1329195 C88.3917541,57.6020269 88.4738889,58.0730055 88.4354443,58.4985685 C87.5707959,58.5756447 86.5141064,58.1582107 85.6713525,57.314264 C84.8263721,56.4714289 84.4077783,55.4171904 84.4858936,54.5545305 C85.3523975,54.4763426 86.4048193,54.8948883 87.2486865,55.7386497 C87.4729627,55.9623565 87.667279,56.2007933 87.8302832,56.4465475 Z M91.2179424,53.3507345 C90.3740752,54.1943107 89.3207256,54.6115594 88.4538506,54.5367066 C88.3757354,53.6721939 88.7947002,52.6194376 89.6394951,51.7756761 C90.4824346,50.9330264 91.5387529,50.5150365 92.4035869,50.5919274 C92.4817021,51.4564401 92.0618096,52.5071584 91.2179424,53.3507345 Z M88.4539248,58.4985685 C88.3758096,57.6338706 88.7945889,56.5816701 89.6395693,55.7386497 C90.4825088,54.8948883 91.5388271,54.4763426 92.4034756,54.5545305 C92.4815908,55.4192284 92.0618838,56.4703173 91.2180166,57.314264 C90.3739639,58.1582107 89.3207998,58.5756447 88.4539248,58.4985685 Z M56.9104461,51.9373972 L65.925316,45.6664409 L65.817881,42.4777147 L61.6860967,46.197802 C61.4715985,46.3572663 61.203197,46.4635758 60.9349814,46.4635758 L55.3007807,46.3572663 L55.3007807,47.0480917 C55.3543123,48.1110004 55.6762454,49.971044 56.9104461,51.9373972 Z M53.2080297,61.8754726 C53.2080297,60.1748933 52.6714126,58.5804369 51.7056134,57.4114052 C49.0762454,61.0783377 45.9639777,62.7789171 45.7492937,62.8852266 C45.5883271,62.9383813 45.4273606,62.9915361 45.2663941,62.9915361 C44.8907435,62.9915361 44.5152788,62.7789171 44.3005948,62.4068337 C44.0321933,61.8754726 44.1931599,61.237802 44.729777,60.9720282 C44.944461,60.8657187 47.8420446,59.2714488 50.2030112,55.763794 C48.8615613,54.6477306 47.144461,54.0100599 45.2663941,54.0100599 C40.8663941,54.0100599 37.3249442,57.5706829 37.3249442,61.8754726 C37.3249442,66.1802623 40.8663941,69.7408853 45.2663941,69.7408853 C49.6665799,69.7408853 53.2080297,66.2334171 53.2080297,61.8754726 Z M74.7790335,69.7408853 C79.1255019,69.7408853 82.7742007,66.2334171 82.7742007,61.8754726 C82.7742007,57.5175282 79.2327509,54.0100599 74.8327509,54.0100599 C71.4520818,54.0100599 68.5544981,56.1358774 67.4277323,59.1119845 C69.6277323,59.8028099 72.1496654,60.3875123 74.9937175,60.8125639 C75.5838662,60.9188734 76.0132342,61.4502345 75.9057993,62.0349369 C75.7985502,62.6194528 75.2619331,63.0446909 74.6717844,62.9383813 C71.7742007,62.5131433 69.1985502,61.9286274 66.8911152,61.1846472 C66.8373978,61.3972663 66.8373978,61.6628536 66.8373978,61.8754726 C66.8373978,66.2334171 70.3790335,69.7408853 74.7790335,69.7408853 Z M43.4184387,49.9291171 C42.9186245,49.9291171 42.4742007,49.6299583 42.4186245,49.1812202 L41.1966914,45.1925615 C41.085539,44.8934028 41.1411152,44.594244 41.3632342,44.3450694 C41.585539,44.0957083 41.9188104,43.946129 42.2520818,43.946129 L50.9725279,43.946129 C51.3057993,43.946129 51.6946468,44.0957083 51.8611896,44.3450694 C52.0279182,44.594244 52.1388848,44.8934028 52.0279182,45.1925615 L50.8057993,49.1812202 C50.6948327,49.6299583 50.2504089,49.9291171 49.7505948,49.9291171 L43.4184387,49.9291171 Z M68.9666543,25.0000746 C71.1620074,25.0000746 72.9417472,26.7858881 72.9417472,28.9887333 C72.9417472,31.1915786 71.1620074,32.9773921 68.9666543,32.9773921 C66.7713011,32.9773921 64.9915613,31.1915786 64.9915613,28.9887333 C64.9915613,26.7858881 66.7713011,25.0000746 68.9666543,25.0000746 Z" id="Combined-Shape"></path>
                        </g>
                    </g>
                </g>
            </g>
        </g>
    </g>
</svg>