<?xml version="1.0" encoding="UTF-8"?>
<svg width="16px" height="13px" viewBox="0 0 16 13" version="1.1" xmlns="http://www.w3.org/2000/svg" xmlns:xlink="http://www.w3.org/1999/xlink">
    <!-- Generator: Sketch 44 (41411) - http://www.bohemiancoding.com/sketch -->
    <title>Outdoor Adventure</title>
    <desc>Created with Sketch.</desc>
    <defs>
        <linearGradient x1="50%" y1="0%" x2="50%" y2="100%" id="linearGradient-1">
            <stop stop-color="#4298E1" offset="0%"></stop>
            <stop stop-color="#1763CC" offset="100%"></stop>
        </linearGradient>
    </defs>
    <g id="Index" stroke="none" stroke-width="1" fill="none" fill-rule="evenodd">
        <g id="Dads_Best_Destinations" transform="translate(-157.000000, -1290.000000)">
            <g id="Content" transform="translate(110.000000, 381.000000)">
                <g id="Subheader" transform="translate(45.000000, 612.000000)">
                    <g id="Outdoor-Adventure" transform="translate(2.000000, 295.000000)">
                        <rect id="BL" fill="#D8D8D8" opacity="0" x="0" y="0" width="16" height="16"></rect>
                        <path d="M12.9924461,8.75982436 C12.3481611,8.7646466 11.8018707,8.93876373 11.3616695,9.15111429 C10.6677844,9.48625963 9.9642547,9.57857099 9.30980851,9.49125409 C9.16686369,9.67983793 9.02254108,9.86807732 8.87666847,10.0556278 C8.80743495,10.1446669 8.69514576,10.1937504 8.58027323,10.1956449 C8.50759526,10.1968504 8.43371173,10.1791115 8.36930045,10.1407058 C8.20293334,10.0416778 8.16246101,9.84413837 8.2763002,9.69964354 C8.37722269,9.57133764 8.47762852,9.44285952 8.57734545,9.31420917 C8.24495567,9.19623664 7.93254373,9.03331398 7.64768741,8.83405234 C7.44584243,8.96718047 7.24261966,9.09944749 7.03819134,9.23050895 C6.97343561,9.27201462 6.89782985,9.291648 6.82308521,9.29061467 C6.71286269,9.28923689 6.60487907,9.24308121 6.53581778,9.1580032 C6.41991191,9.01505838 6.45762868,8.81717451 6.61745133,8.71539091 C6.78519622,8.60861285 6.95190778,8.50114589 7.11793044,8.39299005 C6.87630202,8.15618386 6.66481257,7.89285538 6.48793987,7.61247686 C6.25096146,7.6424436 6.01363861,7.67086034 5.77579908,7.69789931 C5.75685459,7.69996598 5.73808232,7.70082709 5.71965449,7.70031042 C5.55018737,7.69497152 5.40534809,7.57820454 5.38382026,7.4214819 C5.35988131,7.24736477 5.49524833,7.08978102 5.68520995,7.06825318 C5.84796039,7.04982535 6.01071082,7.03070864 6.17311681,7.01090303 C5.9976219,6.59791304 5.89497718,6.16666744 5.87103823,5.74282742 C5.68658773,5.76142747 5.50196502,5.77899418 5.31699786,5.79587201 C5.30098115,5.79724979 5.28496444,5.79776646 5.26911995,5.79707757 C5.10223617,5.79036088 4.96221913,5.66894389 4.9460302,5.50946569 C4.92829127,5.33483189 5.06400274,5.18086481 5.24862545,5.16415921 C5.45512045,5.14538694 5.661271,5.12558133 5.86724933,5.10474238 C5.86914378,4.70914688 5.87121045,4.31355138 5.87362157,3.91795588 C5.69433775,3.91227254 5.51522616,3.9059003 5.33594235,3.89849472 C5.15441965,3.89108915 5.01423038,3.74211653 5.02249707,3.56713828 C5.03093598,3.39216004 5.18283639,3.25713745 5.36194798,3.26454303 C5.53382621,3.27160416 5.80921028,3.27298194 5.9809163,3.27849307 C6.05221649,3.0752703 6.14297784,2.6834637 6.1441834,2.51072435 C6.14831674,2.37845733 6.06461652,2.25962368 5.93803285,2.21811801 C5.49542056,2.07620652 4.20409489,2.01248413 3.37329267,2.00025632 C2.35976219,1.98957852 0.856947066,2.31542383 0.437929281,2.43305192 C0.30428448,2.47094091 0.214039795,2.59270235 0.219378698,2.72996382 C0.27793441,4.21538446 0.927558366,5.60453261 1.02555307,7.0911588 C1.02813641,7.72321604 1.05724205,7.66259366 0.956319554,8.28414531 C0.857291511,8.90621364 0.414851442,9.66916012 0.339073462,10.2957062 C0.325984538,10.4074788 0.312723391,10.5190791 0.299634468,10.6308516 C0.250034335,11.0515916 0.200434203,12.0365331 0.150834071,12.4572731 C0.133784025,12.6017679 0.139467374,12.9284744 0.125689559,13.0467914 C0.103128388,13.2369252 0.0809116617,13.4272313 0.0585227131,13.6177095 C0.0394059954,13.7809767 0.0202892777,13.9442438 0.00117256,14.1075109 C-0.0115719185,14.2163556 0.0809116617,14.3191725 0.213350904,14.342767 C0.367145759,14.3699782 0.521285059,14.3963283 0.675252137,14.4218172 C0.822674752,14.4462729 0.958902894,14.3630893 0.971130704,14.242189 C0.986802968,14.0889108 1.00247523,13.9356326 1.01797527,13.7821822 C1.17435347,13.8071545 1.33073166,13.8312657 1.4874543,13.8543435 C1.47212649,14.0170939 1.45662644,14.1798444 1.44129863,14.3425948 C1.43079304,14.4528173 1.52775441,14.5544287 1.66260477,14.5735454 C1.81743296,14.5955899 1.9726056,14.6166011 2.12777824,14.6369234 C2.27468418,14.6562123 2.40660676,14.5702732 2.416079,14.450234 C2.42830682,14.295578 2.44070685,14.1407498 2.45293466,13.9860939 C2.61017397,14.0057273 2.76741328,14.0243273 2.92482481,14.0422385 C2.91311366,14.2043 2.90140252,14.3663615 2.88969138,14.5284231 C2.88159691,14.6400234 2.98286385,14.7400848 3.11995311,14.7547237 C3.27564241,14.7714293 3.43150394,14.7872738 3.58753769,14.8022572 C3.73358252,14.8163794 3.86137175,14.727857 3.86808844,14.6088511 C3.87704402,14.4528173 3.88582737,14.2967836 3.89478295,14.1409221 C4.05271115,14.1550443 4.21063935,14.1684777 4.36856755,14.1808777 C4.36047308,14.3422504 4.35255084,14.5034508 4.34445637,14.6648235 C4.33877303,14.7778015 4.44468997,14.8763129 4.58350146,14.8863018 C4.73987965,14.8976685 4.89643007,14.9081741 5.05280826,14.9178186 C5.19799198,14.9267742 5.32130342,14.8358406 5.32526455,14.717868 C5.33077567,14.5606287 5.3362868,14.4033894 5.3416257,14.2463223 C6.31830053,14.3007447 7.29704203,14.3214114 8.27561131,14.3083225 C8.27716131,14.4671118 8.27888354,14.6259011 8.28060577,14.7848627 C8.2816391,14.901113 8.39943942,14.9942854 8.54255647,14.9915299 C8.69945133,14.9884299 8.85634619,14.984641 9.01324106,14.9798187 C9.15463588,14.9755132 9.26623618,14.878724 9.26330839,14.7640237 C9.25934727,14.6040288 9.25521392,14.444034 9.2512528,14.2840391 C9.47014783,14.2761169 9.68904286,14.2663002 9.90776567,14.2551057 C9.91327679,14.4126894 9.91896014,14.5702732 9.92447127,14.727857 C9.92843239,14.8453128 10.0510549,14.9360742 10.195722,14.9276353 C10.3522724,14.9186797 10.5088228,14.9086908 10.6653732,14.8978407 C10.8048736,14.8881963 10.9114795,14.7893405 10.9056239,14.6761902 C10.8975294,14.5151619 10.889435,14.354306 10.8813405,14.1932778 C11.0997188,14.1769166 11.317925,14.1588332 11.5361311,14.1390276 C11.5456034,14.2952336 11.5550756,14.4514396 11.5645479,14.6076455 C11.571609,14.726307 11.6990538,14.8143127 11.8449264,14.8001905 C12.0009601,14.7852071 12.1568217,14.7691904 12.3126832,14.7524848 C12.4501169,14.7376736 12.5515561,14.6370956 12.5431171,14.5251509 C12.5308893,14.3634338 12.5186615,14.2015444 12.5064337,14.0398273 C12.723951,14.0150273 12.941296,13.9886772 13.1582966,13.9606049 C13.1715577,14.1154331 13.1848189,14.2700891 13.19808,14.4249173 C13.2084134,14.5447842 13.3405082,14.6298622 13.4872419,14.6098844 C13.6424145,14.5888733 13.6827146,14.5857732 13.837715,14.5630398 C13.9727376,14.5432342 14.0693545,14.440934 14.0581601,14.3307115 C14.0417989,14.1681332 14.0254378,14.0057273 14.0089044,13.843149 C14.2252161,13.8100823 14.3781498,13.7625488 14.5937726,13.7262098 C14.6108227,13.8793158 14.6278727,14.032594 14.6449228,14.1857 C14.6581839,14.3066003 14.7952732,14.388406 14.9425235,14.3627449 C15.0964906,14.3358781 15.1348963,14.3617115 15.2885189,14.3331226 C15.4207859,14.3084947 15.5124084,14.2046444 15.4986306,14.0959719 C15.4779639,13.9328771 15.4764139,13.2262474 15.4524749,13.0361136 C15.4126915,10.4069621 15.0730683,8.73089095 12.9924461,8.75982436 Z" id="Shape" fill="url(#linearGradient-1)" fill-rule="nonzero"></path>
                    </g>
                </g>
            </g>
        </g>
    </g>
</svg>