<?xml version="1.0" encoding="UTF-8"?>
<svg width="16px" height="14px" viewBox="0 0 16 14" version="1.1" xmlns="http://www.w3.org/2000/svg" xmlns:xlink="http://www.w3.org/1999/xlink">
    <!-- Generator: Sketch 44 (41411) - http://www.bohemiancoding.com/sketch -->
    <title>Sport and Recreation</title>
    <desc>Created with Sketch.</desc>
    <defs>
        <linearGradient x1="50%" y1="0%" x2="50%" y2="100%" id="linearGradient-1">
            <stop stop-color="#4298E1" offset="0%"></stop>
            <stop stop-color="#1763CC" offset="100%"></stop>
        </linearGradient>
    </defs>
    <g id="Index" stroke="none" stroke-width="1" fill="none" fill-rule="evenodd">
        <g id="Dads_Best_Destinations" transform="translate(-343.000000, -1290.000000)">
            <g id="Content" transform="translate(110.000000, 381.000000)">
                <g id="Subheader" transform="translate(45.000000, 612.000000)">
                    <g id="Sport-and-Recreation" transform="translate(188.000000, 295.000000)">
                        <rect id="BL" fill="#D8D8D8" opacity="0" x="0" y="0" width="16" height="16"></rect>
                        <path d="M15.8417426,15.8345205 C15.4949703,15.8345205 15.164198,15.6722671 14.8674851,15.3896321 C14.5649109,15.1024174 14.2216238,14.9290418 13.8629703,14.9290418 C13.5032079,14.9290418 13.1600792,15.1037259 12.8570297,15.3896321 C12.5606337,15.6722671 12.229703,15.8345205 11.8827723,15.8345205 C11.536,15.8345205 11.2039604,15.6722671 10.9085149,15.3896321 C10.6007129,15.1024174 10.2574257,14.9290418 9.90273267,14.9290418 C9.54423762,14.9290418 9.20079208,15.1037259 8.89647525,15.3896321 C8.60134653,15.6722671 8.26566337,15.8345205 7.92237624,15.8345205 C7.57528713,15.8345205 7.24467327,15.6722671 6.94542574,15.3896321 C6.64126733,15.1024174 6.29908911,14.9290418 5.94360396,14.9290418 C5.5849505,14.9290418 5.24150495,15.1037259 4.93734653,15.3896321 C4.64205941,15.6722671 4.30637624,15.8345205 3.95912871,15.8345205 C3.61726733,15.8345205 3.28158416,15.6722671 2.98613861,15.3896321 C2.68213861,15.1024174 2.33885149,14.9290418 1.98019802,14.9290418 C1.62423762,14.9290418 1.28237624,15.1037259 0.978059406,15.3896321 C0.677861386,15.6722671 0.347247525,15.8345205 0,15.8345205 L0,12.781801 C0.346930693,12.781801 0.67770297,12.6152949 0.978059406,12.3437821 C1.28237624,12.0487165 1.62423762,11.8750137 1.98019802,11.8750137 C2.33885149,11.8750137 2.68213861,12.0483893 2.98613861,12.3437821 C3.28158416,12.6152949 3.61710891,12.781801 3.95912871,12.781801 C4.30605941,12.781801 4.64205941,12.6152949 4.93734653,12.3437821 C5.24134653,12.0487165 5.58479208,11.8750137 5.94360396,11.8750137 C6.29908911,11.8750137 6.64126733,12.0483893 6.94542574,12.3437821 C7.24483168,12.6152949 7.57528713,12.781801 7.92237624,12.781801 C8.26566337,12.781801 8.60134653,12.6152949 8.89647525,12.3437821 C9.20079208,12.0487165 9.54423762,11.8750137 9.90273267,11.8750137 C10.2572673,11.8750137 10.600396,12.0483893 10.9085149,12.3437821 C11.2039604,12.6152949 11.536,12.781801 11.8827723,12.781801 C12.229703,12.781801 12.5606337,12.6152949 12.8570297,12.3437821 C13.1600792,12.0487165 13.5032079,11.8750137 13.8629703,11.8750137 C14.2216238,11.8750137 14.5649109,12.0483893 14.8674851,12.3437821 C15.164198,12.6152949 15.4949703,12.781801 15.8417426,12.781801 L15.8417426,15.8345205 Z M13.5474059,9.52515068 C12.4305743,9.52515068 11.6619406,8.63550685 11.662099,7.54367123 C11.662099,6.45117808 12.5050297,5.56564384 13.5474059,5.56564384 C14.5877228,5.56564384 15.4317624,6.45117808 15.4317624,7.54367123 C15.4317624,8.63550685 14.5875644,9.52515068 13.5474059,9.52515068 Z M2.57124752,10.6385205 L8.10027723,7.44767123 L6.62621782,4.65528767 C6.60958416,4.61435616 6.59453465,4.57605479 6.57805941,4.53479452 C6.27912871,3.7870137 6.80411881,3.1779726 7.20047525,3.08279452 L12.8483168,2.00378082 C12.8885545,2 12.928,2 12.9709307,2 C13.5627723,2 14.0473663,2.50054795 14.0473663,3.12520548 C14.0473663,3.69183562 13.657505,4.13419178 13.1209505,4.24169863 L9.46471287,4.94180822 L12.6084752,10.894137 C12.3790891,10.9694247 12.1352871,11.0146301 11.8830891,11.0146301 C11.5361584,11.0146301 11.2042772,10.9311233 10.9088317,10.7909041 C10.6007129,10.6462466 10.2574257,10.5548493 9.90289109,10.5548493 C9.54439604,10.5548493 9.2009505,10.6462466 8.89679208,10.7909041 C8.60150495,10.9309589 8.26582178,11.0146301 7.92253465,11.0146301 C7.57544554,11.0146301 7.24483168,10.9311233 6.94574257,10.7909041 C6.64174257,10.6462466 6.29956436,10.5548493 5.94376238,10.5548493 C5.58510891,10.5548493 5.24182178,10.6462466 4.93782178,10.7909041 C4.64253465,10.9309589 4.30653465,11.0146301 3.95976238,11.0146301 C3.61758416,11.0146301 3.28174257,10.9311233 2.98661386,10.7909041 C2.85528713,10.7287671 2.71762376,10.6755068 2.57124752,10.6385205 Z" id="Combined-Shape" fill="url(#linearGradient-1)" fill-rule="nonzero"></path>
                    </g>
                </g>
            </g>
        </g>
    </g>
</svg>